# This file uses meters as units for non-parametric coordinates.

mtllib Höjdhoppsställning.mtl
g default
v 205.000000 0.000000 10.000000
v 215.000000 0.000000 10.000000
v 205.000000 270.000000 10.000000
v 215.000000 270.000000 10.000000
v 205.000000 270.000000 -10.000000
v 215.000000 270.000000 -10.000000
v 205.000000 0.000000 -10.000000
v 215.000000 0.000000 -10.000000
v 205.000000 4.999924 10.000000
v 215.000000 4.999924 10.000000
v 215.000000 5.000076 -10.000000
v 205.000000 5.000076 -10.000000
v 190.000000 0.000000 25.000000
v 230.000000 0.000000 25.000000
v 230.000000 4.999924 25.000000
v 190.000000 4.999924 25.000000
v 230.000000 0.000000 -25.000000
v 230.000000 5.000076 -25.000000
v 190.000000 5.000076 -25.000000
v 190.000000 0.000000 -25.000000
v -5.000000 0.000000 10.000000
v 5.000000 0.000000 10.000000
v -5.000000 270.000000 10.000000
v 5.000000 270.000000 10.000000
v -5.000000 270.000000 -10.000000
v 5.000000 270.000000 -10.000000
v -5.000000 0.000000 -10.000000
v 5.000000 0.000000 -10.000000
v -5.000000 4.999924 10.000000
v 5.000000 4.999924 10.000000
v 5.000000 5.000076 -10.000000
v -5.000000 5.000076 -10.000000
v -20.000000 0.000000 25.000000
v 20.000000 0.000000 25.000000
v 20.000000 4.999924 25.000000
v -20.000000 4.999924 25.000000
v 20.000000 0.000000 -25.000000
v 20.000000 5.000076 -25.000000
v -20.000000 5.000076 -25.000000
v -20.000000 0.000000 -25.000000
vt 0.375000 0.000000
vt 0.625000 0.000000
vt 0.375000 0.250000
vt 0.625000 0.250000
vt 0.375000 0.500000
vt 0.625000 0.500000
vt 0.375000 0.750000
vt 0.625000 0.750000
vt 0.375000 1.000000
vt 0.625000 1.000000
vt 0.875000 0.000000
vt 0.875000 0.250000
vt 0.125000 0.000000
vt 0.125000 0.250000
vt 0.375000 0.009260
vt 0.625000 0.009260
vt 0.625000 0.740740
vt 0.875000 0.009260
vt 0.125000 0.009260
vt 0.375000 0.740740
vt 0.375000 0.000000
vt 0.625000 0.000000
vt 0.625000 0.009260
vt 0.375000 0.009260
vt 0.875000 0.000000
vt 0.875000 0.009260
vt 0.375000 0.740740
vt 0.625000 0.740740
vt 0.625000 0.750000
vt 0.375000 0.750000
vt 0.125000 0.000000
vt 0.125000 0.009260
vt 0.375000 0.009260
vt 0.625000 0.009260
vt 0.625000 0.250000
vt 0.375000 0.250000
vt 0.625000 0.500000
vt 0.375000 0.500000
vt 0.625000 0.740740
vt 0.375000 0.740740
vt 0.375000 0.750000
vt 0.625000 0.750000
vt 0.625000 1.000000
vt 0.375000 1.000000
vt 0.875000 0.009260
vt 0.875000 0.250000
vt 0.125000 0.009260
vt 0.125000 0.250000
vt 0.375000 0.000000
vt 0.625000 0.000000
vt 0.625000 0.009260
vt 0.375000 0.009260
vt 0.875000 0.000000
vt 0.875000 0.009260
vt 0.375000 0.740740
vt 0.625000 0.740740
vt 0.625000 0.750000
vt 0.375000 0.750000
vt 0.125000 0.000000
vt 0.125000 0.009260
vt 0.375000 0.000000
vt 0.625000 0.000000
vt 0.875000 0.000000
vt 0.125000 0.000000
vn 0.000000 0.000000 1.000000
vn 0.000000 0.000000 1.000000
vn 0.000000 0.000000 1.000000
vn 0.000000 0.000000 1.000000
vn 0.000000 1.000000 0.000000
vn 0.000000 1.000000 0.000000
vn 0.000000 1.000000 0.000000
vn 0.000000 1.000000 0.000000
vn 0.000000 0.000000 -1.000000
vn 0.000000 0.000000 -1.000000
vn 0.000000 0.000000 -1.000000
vn 0.000000 0.000000 -1.000000
vn 0.000000 -1.000000 0.000000
vn 0.000000 -1.000000 0.000000
vn 0.000000 -1.000000 0.000000
vn 0.000000 -1.000000 0.000000
vn 1.000000 0.000000 0.000000
vn 1.000000 0.000000 0.000000
vn 1.000000 0.000000 0.000000
vn 1.000000 0.000000 0.000000
vn -1.000000 0.000000 0.000000
vn -1.000000 0.000000 0.000000
vn -1.000000 0.000000 0.000000
vn -1.000000 0.000000 0.000000
vn 0.000000 0.000000 1.000000
vn 0.000000 0.000000 1.000000
vn 0.000000 0.000000 1.000000
vn 0.000000 0.000000 1.000000
vn 1.000000 0.000000 0.000000
vn 1.000000 0.000000 0.000000
vn 1.000000 0.000000 0.000000
vn 1.000000 0.000000 0.000000
vn 0.000000 0.000000 -1.000000
vn 0.000000 0.000000 -1.000000
vn 0.000000 0.000000 -1.000000
vn 0.000000 0.000000 -1.000000
vn -1.000000 0.000000 0.000000
vn -1.000000 0.000000 0.000000
vn -1.000000 0.000000 0.000000
vn -1.000000 0.000000 0.000000
vn 0.000000 -1.000000 0.000000
vn 0.000000 -1.000000 0.000000
vn 0.000000 1.000000 0.000003
vn 0.000000 1.000000 0.000003
vn 0.000000 1.000000 0.000003
vn 0.000000 1.000000 0.000003
vn 0.000000 -1.000000 0.000000
vn 0.000000 1.000000 0.000003
vn 0.000000 1.000000 0.000003
vn 0.000000 1.000000 0.000003
vn 0.000000 1.000000 0.000003
vn 0.000000 -1.000000 0.000000
vn 0.000000 0.000000 1.000000
vn 0.000000 0.000000 1.000000
vn 0.000000 0.000000 1.000000
vn 0.000000 0.000000 1.000000
vn 0.000000 1.000000 0.000000
vn 0.000000 1.000000 0.000000
vn 0.000000 1.000000 0.000000
vn 0.000000 1.000000 0.000000
vn 0.000000 0.000000 -1.000000
vn 0.000000 0.000000 -1.000000
vn 0.000000 0.000000 -1.000000
vn 0.000000 0.000000 -1.000000
vn 0.000000 -1.000000 0.000000
vn 0.000000 -1.000000 0.000000
vn 0.000000 -1.000000 0.000000
vn 0.000000 -1.000000 0.000000
vn 1.000000 0.000000 0.000000
vn 1.000000 0.000000 0.000000
vn 1.000000 0.000000 0.000000
vn 1.000000 0.000000 0.000000
vn -1.000000 0.000000 0.000000
vn -1.000000 0.000000 0.000000
vn -1.000000 0.000000 0.000000
vn -1.000000 0.000000 0.000000
vn 0.000000 0.000000 1.000000
vn 0.000000 0.000000 1.000000
vn 0.000000 0.000000 1.000000
vn 0.000000 0.000000 1.000000
vn 1.000000 0.000000 0.000000
vn 1.000000 0.000000 0.000000
vn 1.000000 0.000000 0.000000
vn 1.000000 0.000000 0.000000
vn 0.000000 0.000000 -1.000000
vn 0.000000 0.000000 -1.000000
vn 0.000000 0.000000 -1.000000
vn 0.000000 0.000000 -1.000000
vn -1.000000 0.000000 0.000000
vn -1.000000 0.000000 0.000000
vn -1.000000 0.000000 0.000000
vn -1.000000 0.000000 0.000000
vn 0.000000 -1.000000 0.000000
vn 0.000000 -1.000000 0.000000
vn 0.000000 1.000000 0.000003
vn 0.000000 1.000000 0.000003
vn 0.000000 1.000000 0.000003
vn 0.000000 1.000000 0.000003
vn 0.000000 -1.000000 0.000000
vn 0.000000 1.000000 0.000003
vn 0.000000 1.000000 0.000003
vn 0.000000 1.000000 0.000003
vn 0.000000 1.000000 0.000003
vn 0.000000 -1.000000 0.000000
s off
g pCube12
usemtl initialShadingGroup
f 9/15/1 10/16/2 4/4/3 3/3/4
f 3/3/5 4/4/6 6/6/7 5/5/8
f 5/5/9 6/6/10 11/17/11 12/20/12
s 1
f 7/7/13 8/8/14 2/10/15 1/9/16
s off
f 10/16/17 11/18/18 6/12/19 4/4/20
f 12/19/21 9/15/22 3/3/23 5/14/24
f 13/21/25 14/22/26 15/23/27 16/24/28
f 14/22/29 17/25/30 18/26/31 15/23/32
f 19/27/33 18/28/34 17/29/35 20/30/36
f 20/31/37 13/21/38 16/24/39 19/32/40
s 1
f 1/1/16 2/2/15 14/22/41 13/21/42
s 2
f 10/16/43 9/15/44 16/24/45 15/23/46
s 1
f 2/2/15 8/11/14 17/25/47 14/22/41
s 2
f 11/18/48 10/16/43 15/23/46 18/26/49
f 12/20/50 11/17/48 18/28/49 19/27/51
s 1
f 8/8/14 7/7/13 20/30/52 17/29/47
f 7/13/13 1/1/16 13/21/42 20/31/52
s 2
f 9/15/44 12/19/50 19/32/51 16/24/45
s off
f 29/33/53 30/34/54 24/35/55 23/36/56
f 23/36/57 24/35/58 26/37/59 25/38/60
f 25/38/61 26/37/62 31/39/63 32/40/64
s 3
f 27/41/65 28/42/66 22/43/67 21/44/68
s off
f 30/34/69 31/45/70 26/46/71 24/35/72
f 32/47/73 29/33/74 23/36/75 25/48/76
f 33/49/77 34/50/78 35/51/79 36/52/80
f 34/50/81 37/53/82 38/54/83 35/51/84
f 39/55/85 38/56/86 37/57/87 40/58/88
f 40/59/89 33/49/90 36/52/91 39/60/92
s 3
f 21/61/68 22/62/67 34/50/93 33/49/94
s 4
f 30/34/95 29/33/96 36/52/97 35/51/98
s 3
f 22/62/67 28/63/66 37/53/99 34/50/93
s 4
f 31/45/100 30/34/95 35/51/98 38/54/101
f 32/40/102 31/39/100 38/56/101 39/55/103
s 3
f 28/42/66 27/41/65 40/58/104 37/57/99
f 27/64/65 21/61/68 33/49/94 40/59/104
s 4
f 29/33/96 32/47/102 39/60/103 36/52/97
