# This file uses meters as units for non-parametric coordinates.

mtllib Lian.mtl
g default
v 1.385820 0.000000 -0.574024
v 1.060661 0.000000 -1.060660
v 0.574026 0.000000 -1.385819
v 0.000001 0.000000 -1.500000
v -0.574024 0.000000 -1.385820
v -1.060660 0.000000 -1.060661
v -1.385819 0.000000 -0.574026
v -1.500000 0.000000 -0.000001
v -1.385819 0.000000 0.574025
v -1.060660 0.000000 1.060660
v -0.574025 0.000000 1.385819
v -0.000000 0.000000 1.500000
v 0.574025 0.000000 1.385819
v 1.060660 0.000000 1.060660
v 1.385819 0.000000 0.574025
v 1.500000 0.000000 0.000000
v 1.385820 750.000000 -0.574024
v 1.060661 750.000000 -1.060660
v 0.574026 750.000000 -1.385819
v 0.000001 750.000000 -1.500000
v -0.574024 750.000000 -1.385820
v -1.060660 750.000000 -1.060661
v -1.385819 750.000000 -0.574026
v -1.500000 750.000000 -0.000001
v -1.385819 750.000000 0.574025
v -1.060660 750.000000 1.060660
v -0.574025 750.000000 1.385819
v -0.000000 750.000000 1.500000
v 0.574025 750.000000 1.385819
v 1.060660 750.000000 1.060660
v 1.385819 750.000000 0.574025
v 1.500000 750.000000 0.000000
v 0.000000 0.000000 0.000000
v 0.000000 750.000000 0.000000
v 1.385820 20.000000 -0.574024
v 1.060661 20.000000 -1.060660
v 0.574026 20.000000 -1.385819
v 0.000001 20.000000 -1.500000
v -0.574024 20.000000 -1.385820
v -1.060660 20.000000 -1.060661
v -1.385819 20.000000 -0.574026
v -1.500000 20.000000 -0.000001
v -1.385820 20.000000 0.574025
v -1.060660 20.000000 1.060660
v -0.574025 20.000000 1.385819
v -0.000000 20.000000 1.500000
v 0.574025 20.000000 1.385819
v 1.060660 20.000000 1.060660
v 1.385819 20.000000 0.574025
v 1.500000 20.000000 0.000000
v 1.595394 0.000000 -0.660833
v 1.221062 0.000000 -1.221061
v 1.221062 20.000000 -1.221061
v 1.595395 20.000000 -0.660833
v 0.660835 0.000000 -1.595394
v 0.660835 20.000000 -1.595394
v 0.000001 0.000000 -1.726842
v 0.000001 20.000000 -1.726842
v -0.660833 0.000000 -1.595394
v -0.660833 20.000000 -1.595394
v -1.221061 0.000000 -1.221062
v -1.221061 20.000000 -1.221062
v -1.595394 0.000000 -0.660834
v -1.595394 20.000000 -0.660834
v -1.726842 0.000000 -0.000001
v -1.726842 20.000000 -0.000001
v -1.595394 0.000000 0.660833
v -1.595394 20.000000 0.660833
v -1.221062 0.000000 1.221061
v -1.221062 20.000000 1.221061
v -0.660834 0.000000 1.595394
v -0.660834 20.000000 1.595394
v -0.000000 0.000000 1.726842
v -0.000000 20.000000 1.726842
v 0.660834 0.000000 1.595394
v 0.660834 20.000000 1.595394
v 1.221062 0.000000 1.221062
v 1.221062 20.000000 1.221062
v 1.595394 0.000000 0.660834
v 1.595394 20.000000 0.660834
v 1.726842 0.000000 0.000000
v 1.726842 20.000000 0.000000
vt 0.644356 0.096456
vt 0.610485 0.045765
vt 0.559794 0.011894
vt 0.500000 0.000000
vt 0.440206 0.011894
vt 0.389515 0.045765
vt 0.355644 0.096456
vt 0.343750 0.156250
vt 0.355644 0.216044
vt 0.389515 0.266735
vt 0.440206 0.300606
vt 0.500000 0.312500
vt 0.559794 0.300606
vt 0.610485 0.266735
vt 0.644356 0.216044
vt 0.656250 0.156250
vt 0.375000 0.312500
vt 0.390625 0.312500
vt 0.406250 0.312500
vt 0.421875 0.312500
vt 0.437500 0.312500
vt 0.453125 0.312500
vt 0.468750 0.312500
vt 0.484375 0.312500
vt 0.500000 0.312500
vt 0.515625 0.312500
vt 0.531250 0.312500
vt 0.546875 0.312500
vt 0.562500 0.312500
vt 0.578125 0.312500
vt 0.593750 0.312500
vt 0.609375 0.312500
vt 0.625000 0.312500
vt 0.375000 0.688440
vt 0.390625 0.688440
vt 0.406250 0.688440
vt 0.421875 0.688440
vt 0.437500 0.688440
vt 0.453125 0.688440
vt 0.468750 0.688440
vt 0.484375 0.688440
vt 0.500000 0.688440
vt 0.515625 0.688440
vt 0.531250 0.688440
vt 0.546875 0.688440
vt 0.562500 0.688440
vt 0.578125 0.688440
vt 0.593750 0.688440
vt 0.609375 0.688440
vt 0.625000 0.688440
vt 0.644356 0.783956
vt 0.610485 0.733265
vt 0.559794 0.699394
vt 0.500000 0.687500
vt 0.440206 0.699394
vt 0.389515 0.733265
vt 0.355644 0.783956
vt 0.343750 0.843750
vt 0.355644 0.903544
vt 0.389515 0.954235
vt 0.440206 0.988106
vt 0.500000 1.000000
vt 0.559794 0.988106
vt 0.610485 0.954235
vt 0.644356 0.903544
vt 0.656250 0.843750
vt 0.500000 0.150000
vt 0.500000 0.837500
vt 0.625000 0.313994
vt 0.375000 0.313994
vt 0.390625 0.313994
vt 0.406250 0.313994
vt 0.421875 0.313994
vt 0.437500 0.313994
vt 0.453125 0.313994
vt 0.468750 0.313994
vt 0.484375 0.313994
vt 0.500000 0.313994
vt 0.515625 0.313994
vt 0.531250 0.313994
vt 0.546875 0.313994
vt 0.562500 0.313994
vt 0.578125 0.313994
vt 0.593750 0.313994
vt 0.609375 0.313994
vt 0.375000 0.312500
vt 0.390625 0.312500
vt 0.390625 0.313994
vt 0.375000 0.313994
vt 0.406250 0.312500
vt 0.406250 0.313994
vt 0.421875 0.312500
vt 0.421875 0.313994
vt 0.437500 0.312500
vt 0.437500 0.313994
vt 0.453125 0.312500
vt 0.453125 0.313994
vt 0.468750 0.312500
vt 0.468750 0.313994
vt 0.484375 0.312500
vt 0.484375 0.313994
vt 0.500000 0.312500
vt 0.500000 0.313994
vt 0.515625 0.312500
vt 0.515625 0.313994
vt 0.531250 0.312500
vt 0.531250 0.313994
vt 0.546875 0.312500
vt 0.546875 0.313994
vt 0.562500 0.312500
vt 0.562500 0.313994
vt 0.578125 0.312500
vt 0.578125 0.313994
vt 0.593750 0.312500
vt 0.593750 0.313994
vt 0.609375 0.312500
vt 0.609375 0.313994
vt 0.625000 0.312500
vt 0.625000 0.313994
vn 0.923880 0.000000 -0.382683
vn 0.707107 0.000000 -0.707106
vn 0.707107 0.000000 -0.707106
vn 0.923880 0.000000 -0.382683
vn 0.382684 0.000000 -0.923879
vn 0.382684 0.000000 -0.923879
vn 0.000001 0.000000 -1.000000
vn 0.000001 0.000000 -1.000000
vn -0.382683 0.000000 -0.923880
vn -0.382683 0.000000 -0.923880
vn -0.707106 0.000000 -0.707107
vn -0.707106 0.000000 -0.707107
vn -0.923879 0.000000 -0.382684
vn -0.923879 0.000000 -0.382684
vn -1.000000 0.000000 -0.000000
vn -1.000000 0.000000 -0.000000
vn -0.923880 0.000000 0.382683
vn -0.923880 0.000000 0.382683
vn -0.707107 0.000000 0.707107
vn -0.707107 0.000000 0.707107
vn -0.382684 0.000000 0.923879
vn -0.382684 0.000000 0.923879
vn -0.000000 0.000000 1.000000
vn -0.000000 0.000000 1.000000
vn 0.382683 0.000000 0.923880
vn 0.382683 0.000000 0.923880
vn 0.707107 0.000000 0.707107
vn 0.707107 0.000000 0.707107
vn 0.923880 0.000000 0.382683
vn 0.923880 0.000000 0.382683
vn 1.000000 0.000000 0.000000
vn 1.000000 0.000000 0.000000
vn 0.000000 -1.000000 0.000004
vn 0.000000 -1.000000 0.000008
vn 0.000000 -1.000000 0.000000
vn 0.000000 -1.000000 -0.000016
vn 0.000000 -1.000000 -0.000033
vn 0.000000 -1.000000 -0.000025
vn 0.000000 -1.000000 0.000016
vn 0.000000 -1.000000 0.000028
vn 0.000000 -1.000000 0.000008
vn 0.000000 -1.000000 -0.000008
vn 0.000000 -1.000000 0.000008
vn 0.000000 -1.000000 0.000007
vn 0.000000 -1.000000 0.000010
vn 0.000000 -1.000000 0.000012
vn 0.000000 -1.000000 -0.000012
vn 0.000000 -1.000000 0.000004
vn 0.000000 -1.000000 0.000008
vn 0.000000 1.000000 0.000000
vn 0.000000 1.000000 0.000000
vn 0.000000 1.000000 0.000008
vn 0.000000 1.000000 0.000000
vn 0.000000 1.000000 0.000006
vn 0.000000 1.000000 0.000006
vn 0.000000 1.000000 0.000035
vn 0.000000 1.000000 0.000035
vn 0.000000 1.000000 0.000000
vn 0.000000 1.000000 0.000000
vn 0.000000 1.000000 0.000035
vn 0.000000 1.000000 0.000053
vn 0.000000 1.000000 0.000009
vn 0.000000 1.000000 0.000009
vn 0.000000 1.000000 -0.000018
vn 0.000000 1.000000 -0.000035
vn 0.000000 1.000000 0.000000
vn 0.923880 -0.000000 -0.382683
vn 0.707107 -0.000000 -0.707107
vn 0.707107 -0.000000 -0.707107
vn 0.923880 -0.000000 -0.382683
vn 0.382684 0.000000 -0.923879
vn 0.382684 0.000000 -0.923879
vn 0.000000 -0.000000 -1.000000
vn 0.000000 -0.000000 -1.000000
vn -0.382683 -0.000000 -0.923880
vn -0.382683 -0.000000 -0.923880
vn -0.707106 -0.000000 -0.707107
vn -0.707106 -0.000000 -0.707107
vn -0.923879 0.000000 -0.382684
vn -0.923879 0.000000 -0.382684
vn -1.000000 0.000000 -0.000000
vn -1.000000 0.000000 -0.000000
vn -0.923880 0.000000 0.382683
vn -0.923880 0.000000 0.382683
vn -0.707107 0.000000 0.707107
vn -0.707107 0.000000 0.707107
vn -0.382684 0.000000 0.923879
vn -0.382684 0.000000 0.923879
vn -0.000000 -0.000000 1.000000
vn -0.000000 -0.000000 1.000000
vn 0.382683 -0.000000 0.923880
vn 0.382683 -0.000000 0.923880
vn 0.707107 -0.000000 0.707107
vn 0.707107 -0.000000 0.707107
vn 0.923880 0.000000 0.382684
vn 0.923880 0.000000 0.382684
vn 1.000000 -0.000000 0.000000
vn 1.000000 -0.000000 0.000000
vn 0.000000 -1.000000 0.000014
vn 0.000000 -1.000000 0.000027
vn 0.000000 1.000000 0.000000
vn 0.000000 1.000000 0.000027
vn 0.000000 1.000000 0.000027
vn 0.000000 1.000000 -0.000000
vn 0.000000 -1.000000 -0.000041
vn 0.000000 1.000000 0.000021
vn 0.000000 1.000000 0.000021
vn 0.000000 -1.000000 -0.000098
vn 0.000000 1.000000 0.000041
vn 0.000000 1.000000 0.000041
vn 0.000000 -1.000000 -0.000084
vn 0.000000 1.000000 -0.000020
vn 0.000000 1.000000 -0.000020
vn 0.000000 -1.000000 0.000054
vn 0.000000 1.000000 -0.000014
vn 0.000000 1.000000 -0.000014
vn 0.000000 -1.000000 0.000095
vn 0.000000 1.000000 0.000000
vn 0.000000 1.000000 0.000000
vn 0.000000 -1.000000 0.000027
vn 0.000000 1.000000 0.000000
vn 0.000000 1.000000 0.000000
vn 0.000000 -1.000000 -0.000027
vn 0.000000 1.000000 0.000027
vn 0.000000 1.000000 0.000027
vn 0.000000 -1.000000 -0.000014
vn 0.000000 1.000000 -0.000027
vn 0.000000 1.000000 -0.000027
vn 0.000000 -1.000000 -0.000041
vn 0.000000 1.000000 -0.000003
vn 0.000000 1.000000 -0.000003
vn 0.000000 -1.000000 0.000055
vn 0.000000 1.000000 0.000018
vn 0.000000 1.000000 0.000018
vn 0.000000 -1.000000 0.000082
vn 0.000000 1.000000 -0.000020
vn 0.000000 1.000000 -0.000020
vn 0.000000 -1.000000 -0.000041
vn 0.000000 1.000000 0.000014
vn 0.000000 1.000000 0.000014
vn 0.000000 -1.000000 0.000014
vn 0.000000 1.000000 0.000027
vn 0.000000 1.000000 0.000027
vn 0.000000 -1.000000 0.000027
vn 0.000000 1.000000 0.000027
vn 0.000000 1.000000 0.000027
s 1
g pCylinder4
usemtl initialShadingGroup
f 35/70/1 36/71/2 18/35/3 17/34/4
f 36/71/2 37/72/5 19/36/6 18/35/3
f 37/72/5 38/73/7 20/37/8 19/36/6
f 38/73/7 39/74/9 21/38/10 20/37/8
f 39/74/9 40/75/11 22/39/12 21/38/10
f 40/75/11 41/76/13 23/40/14 22/39/12
f 41/76/13 42/77/15 24/41/16 23/40/14
f 42/77/15 43/78/17 25/42/18 24/41/16
f 43/78/17 44/79/19 26/43/20 25/42/18
f 44/79/19 45/80/21 27/44/22 26/43/20
f 45/80/21 46/81/23 28/45/24 27/44/22
f 46/81/23 47/82/25 29/46/26 28/45/24
f 47/82/25 48/83/27 30/47/28 29/46/26
f 48/83/27 49/84/29 31/48/30 30/47/28
f 49/84/29 50/85/31 32/49/32 31/48/30
f 50/85/31 35/69/1 17/50/4 32/49/32
s 2
f 2/2/33 1/1/34 33/67/35
f 3/3/36 2/2/33 33/67/35
f 4/4/37 3/3/36 33/67/35
f 5/5/38 4/4/37 33/67/35
f 6/6/39 5/5/38 33/67/35
f 7/7/40 6/6/39 33/67/35
f 8/8/41 7/7/40 33/67/35
f 9/9/42 8/8/41 33/67/35
f 10/10/43 9/9/42 33/67/35
f 11/11/44 10/10/43 33/67/35
f 12/12/45 11/11/44 33/67/35
f 13/13/46 12/12/45 33/67/35
f 14/14/47 13/13/46 33/67/35
f 15/15/48 14/14/47 33/67/35
f 16/16/49 15/15/48 33/67/35
f 1/1/34 16/16/49 33/67/35
s 3
f 17/65/50 18/64/51 34/68/52
f 18/64/51 19/63/53 34/68/52
f 19/63/53 20/62/54 34/68/52
f 20/62/54 21/61/55 34/68/52
f 21/61/55 22/60/56 34/68/52
f 22/60/56 23/59/57 34/68/52
f 23/59/57 24/58/58 34/68/52
f 24/58/58 25/57/59 34/68/52
f 25/57/59 26/56/60 34/68/52
f 26/56/60 27/55/61 34/68/52
f 27/55/61 28/54/62 34/68/52
f 28/54/62 29/53/63 34/68/52
f 29/53/63 30/52/64 34/68/52
f 30/52/64 31/51/65 34/68/52
f 31/51/65 32/66/66 34/68/52
f 32/66/66 17/65/50 34/68/52
s 4
f 51/86/67 52/87/68 53/88/69 54/89/70
f 52/87/68 55/90/71 56/91/72 53/88/69
f 55/90/71 57/92/73 58/93/74 56/91/72
f 57/92/73 59/94/75 60/95/76 58/93/74
f 59/94/75 61/96/77 62/97/78 60/95/76
f 61/96/77 63/98/79 64/99/80 62/97/78
f 63/98/79 65/100/81 66/101/82 64/99/80
f 65/100/81 67/102/83 68/103/84 66/101/82
f 67/102/83 69/104/85 70/105/86 68/103/84
f 69/104/85 71/106/87 72/107/88 70/105/86
f 71/106/87 73/108/89 74/109/90 72/107/88
f 73/108/89 75/110/91 76/111/92 74/109/90
f 75/110/91 77/112/93 78/113/94 76/111/92
f 77/112/93 79/114/95 80/115/96 78/113/94
f 79/114/95 81/116/97 82/117/98 80/115/96
f 81/116/97 51/118/67 54/119/70 82/117/98
s 2
f 1/17/34 2/18/33 52/87/99 51/86/100
s 5
f 36/71/101 35/70/102 54/89/103 53/88/104
s 2
f 2/18/33 3/19/36 55/90/105 52/87/99
s 5
f 37/72/106 36/71/101 53/88/104 56/91/107
s 2
f 3/19/36 4/20/37 57/92/108 55/90/105
s 5
f 38/73/109 37/72/106 56/91/107 58/93/110
s 2
f 4/20/37 5/21/38 59/94/111 57/92/108
s 5
f 39/74/112 38/73/109 58/93/110 60/95/113
s 2
f 5/21/38 6/22/39 61/96/114 59/94/111
s 5
f 40/75/115 39/74/112 60/95/113 62/97/116
s 2
f 6/22/39 7/23/40 63/98/117 61/96/114
s 5
f 41/76/118 40/75/115 62/97/116 64/99/119
s 2
f 7/23/40 8/24/41 65/100/120 63/98/117
s 5
f 42/77/121 41/76/118 64/99/119 66/101/122
s 2
f 8/24/41 9/25/42 67/102/123 65/100/120
s 5
f 43/78/124 42/77/121 66/101/122 68/103/125
s 2
f 9/25/42 10/26/43 69/104/126 67/102/123
s 5
f 44/79/127 43/78/124 68/103/125 70/105/128
s 2
f 10/26/43 11/27/44 71/106/129 69/104/126
s 5
f 45/80/130 44/79/127 70/105/128 72/107/131
s 2
f 11/27/44 12/28/45 73/108/132 71/106/129
s 5
f 46/81/133 45/80/130 72/107/131 74/109/134
s 2
f 12/28/45 13/29/46 75/110/135 73/108/132
s 5
f 47/82/136 46/81/133 74/109/134 76/111/137
s 2
f 13/29/46 14/30/47 77/112/138 75/110/135
s 5
f 48/83/139 47/82/136 76/111/137 78/113/140
s 2
f 14/30/47 15/31/48 79/114/141 77/112/138
s 5
f 49/84/142 48/83/139 78/113/140 80/115/143
s 2
f 15/31/48 16/32/49 81/116/144 79/114/141
s 5
f 50/85/145 49/84/142 80/115/143 82/117/146
s 2
f 16/32/49 1/33/34 51/118/100 81/116/144
s 5
f 35/69/102 50/85/145 82/117/146 54/119/103
