# This file uses meters as units for non-parametric coordinates.

mtllib plint1del.mtl
g default
v 64.781189 10.000000 15.000000
v 64.781189 0.000000 18.214287
v 65.000000 14.049035 15.000000
v 68.133369 11.012154 18.133369
v 67.121216 10.000000 17.121212
v 67.121216 14.049035 17.121212
v 68.133369 13.036881 18.133369
v -0.000000 14.049035 15.000000
v -0.000000 14.049035 17.121212
v 0.000000 13.036881 18.133369
v -0.000000 11.012154 18.133369
v 0.000000 10.000000 17.121212
v 0.000000 10.000000 15.000000
v 0.000000 0.000000 18.214287
v 64.781189 6.659104 4.977325
v 64.781189 3.340893 6.043892
v 62.977104 6.659104 4.977325
v 62.977104 3.340893 6.043892
v -0.000000 14.049035 -0.000000
v 65.000000 14.049035 -0.000000
v 67.121216 14.049035 -0.000000
v 68.133369 13.036881 -0.000000
v 68.133369 11.012154 -0.000000
v 67.121216 10.000000 -0.000000
v 64.781189 10.000000 -0.000000
v 64.781189 6.659104 -0.000000
v 62.977104 6.659104 -0.000000
v 62.977104 3.340893 -0.000000
v 64.781189 3.340893 -0.000000
v 64.781189 0.000000 -0.000000
v 64.781189 10.000000 -15.000000
v 64.781189 0.000000 -18.214287
v 65.000000 14.049035 -15.000000
v 68.133369 11.012154 -18.133369
v 67.121216 10.000000 -17.121212
v 67.121216 14.049035 -17.121212
v 68.133369 13.036881 -18.133369
v -0.000000 14.049035 -15.000000
v 0.000000 14.049035 -17.121212
v 0.000000 13.036881 -18.133369
v -0.000000 11.012154 -18.133369
v -0.000000 10.000000 -17.121212
v 0.000000 10.000000 -15.000000
v 0.000000 0.000000 -18.214287
v 64.781189 6.659104 -4.977325
v 64.781189 3.340893 -6.043892
v 62.977104 6.659104 -4.977325
v 62.977104 3.340893 -6.043892
v -64.781189 10.000000 15.000000
v -64.781189 0.000000 18.214287
v -65.000000 14.049035 15.000000
v -68.133369 11.012154 18.133369
v -67.121216 10.000000 17.121212
v -67.121216 14.049035 17.121212
v -68.133369 13.036881 18.133369
v -64.781189 6.659104 4.977325
v -64.781189 3.340893 6.043892
v -62.977104 6.659104 4.977325
v -62.977104 3.340893 6.043892
v -65.000000 14.049035 -0.000000
v -67.121216 14.049035 -0.000000
v -68.133369 13.036881 -0.000000
v -68.133369 11.012154 -0.000000
v -67.121216 10.000000 -0.000000
v -64.781189 10.000000 -0.000000
v -64.781189 6.659104 -0.000000
v -62.977104 6.659104 -0.000000
v -62.977104 3.340893 -0.000000
v -64.781189 3.340893 -0.000000
v -64.781189 0.000000 -0.000000
v -64.781189 10.000000 -15.000000
v -64.781189 0.000000 -18.214287
v -65.000000 14.049035 -15.000000
v -68.133369 11.012154 -18.133369
v -67.121216 10.000000 -17.121212
v -67.121216 14.049035 -17.121212
v -68.133369 13.036881 -18.133369
v -64.781189 6.659104 -4.977325
v -64.781189 3.340893 -6.043892
v -62.977104 6.659104 -4.977325
v -62.977104 3.340893 -6.043892
vt 0.491062 0.250000
vt 0.492339 0.214286
vt 0.673964 0.214286
vt 0.682124 0.250000
vt 0.500000 0.250000
vt 0.500000 0.250000
vt 0.625000 0.250000
vt 0.625000 0.250000
vt 0.625000 0.250000
vt 0.625000 0.250000
vt 0.500000 0.250000
vt 0.500000 0.250000
vt 0.500000 0.250000
vt 0.625000 0.250000
vt 0.625000 0.250000
vt 0.500000 0.250000
vt 0.000000 0.000000
vt 1.000000 0.000000
vt 1.000000 1.000000
vt 0.000000 1.000000
vt 0.000000 0.000000
vt 1.000000 0.000000
vt 1.000000 1.000000
vt 0.000000 1.000000
vt 0.625000 0.375000
vt 0.500000 0.375000
vt 0.625000 0.375000
vt 0.625000 0.375000
vt 0.625000 0.375000
vt 0.625000 0.375000
vt 0.625000 0.375000
vt 0.500000 1.000000
vt 0.500000 0.000000
vt 1.000000 0.000000
vt 1.000000 1.000000
vt 0.500000 1.000000
vt 0.500000 0.000000
vt 1.000000 0.000000
vt 1.000000 1.000000
vt 0.000000 1.000000
vt 0.000000 1.000000
vt 0.000000 1.000000
vt 0.000000 0.000000
vt 0.500000 0.000000
vt 0.500000 1.000000
vt 0.000000 0.000000
vt 0.500000 0.000000
vt 0.500000 1.000000
vt 0.000000 1.000000
vt 0.491062 0.250000
vt 0.682124 0.250000
vt 0.673964 0.214286
vt 0.492339 0.214286
vt 0.500000 0.250000
vt 0.625000 0.250000
vt 0.625000 0.250000
vt 0.500000 0.250000
vt 0.625000 0.250000
vt 0.500000 0.250000
vt 0.500000 0.250000
vt 0.625000 0.250000
vt 0.625000 0.250000
vt 0.500000 0.250000
vt 0.625000 0.250000
vt 0.500000 0.250000
vt 0.000000 0.000000
vt 0.000000 1.000000
vt 1.000000 1.000000
vt 1.000000 0.000000
vt 0.000000 0.000000
vt 0.000000 1.000000
vt 1.000000 1.000000
vt 1.000000 0.000000
vt 0.625000 0.375000
vt 0.500000 0.375000
vt 0.625000 0.375000
vt 0.625000 0.375000
vt 0.625000 0.375000
vt 0.625000 0.375000
vt 0.625000 0.375000
vt 0.500000 1.000000
vt 1.000000 1.000000
vt 1.000000 0.000000
vt 0.500000 0.000000
vt 0.500000 1.000000
vt 1.000000 1.000000
vt 1.000000 0.000000
vt 0.500000 0.000000
vt 0.000000 1.000000
vt 0.000000 1.000000
vt 0.000000 1.000000
vt 0.000000 0.000000
vt 0.500000 1.000000
vt 0.500000 0.000000
vt 0.000000 0.000000
vt 0.000000 1.000000
vt 0.500000 1.000000
vt 0.500000 0.000000
vt 0.491062 0.250000
vt 0.492339 0.214286
vt 0.673964 0.214286
vt 0.682124 0.250000
vt 0.500000 0.250000
vt 0.500000 0.250000
vt 0.625000 0.250000
vt 0.625000 0.250000
vt 0.625000 0.250000
vt 0.625000 0.250000
vt 0.500000 0.250000
vt 0.500000 0.250000
vt 0.500000 0.250000
vt 0.625000 0.250000
vt 0.625000 0.250000
vt 0.500000 0.250000
vt 0.000000 0.000000
vt 1.000000 0.000000
vt 1.000000 1.000000
vt 0.000000 1.000000
vt 0.000000 0.000000
vt 1.000000 0.000000
vt 1.000000 1.000000
vt 0.000000 1.000000
vt 0.625000 0.375000
vt 0.500000 0.375000
vt 0.625000 0.375000
vt 0.625000 0.375000
vt 0.625000 0.375000
vt 0.625000 0.375000
vt 0.625000 0.375000
vt 0.500000 1.000000
vt 0.500000 0.000000
vt 1.000000 0.000000
vt 1.000000 1.000000
vt 0.500000 1.000000
vt 0.500000 0.000000
vt 1.000000 0.000000
vt 1.000000 1.000000
vt 0.000000 1.000000
vt 0.000000 1.000000
vt 0.000000 1.000000
vt 0.000000 0.000000
vt 0.500000 0.000000
vt 0.500000 1.000000
vt 0.000000 0.000000
vt 0.500000 0.000000
vt 0.500000 1.000000
vt 0.000000 1.000000
vt 0.491062 0.250000
vt 0.682124 0.250000
vt 0.673964 0.214286
vt 0.492339 0.214286
vt 0.500000 0.250000
vt 0.625000 0.250000
vt 0.625000 0.250000
vt 0.500000 0.250000
vt 0.625000 0.250000
vt 0.500000 0.250000
vt 0.500000 0.250000
vt 0.625000 0.250000
vt 0.625000 0.250000
vt 0.500000 0.250000
vt 0.625000 0.250000
vt 0.500000 0.250000
vt 0.000000 0.000000
vt 0.000000 1.000000
vt 1.000000 1.000000
vt 1.000000 0.000000
vt 0.000000 0.000000
vt 0.000000 1.000000
vt 1.000000 1.000000
vt 1.000000 0.000000
vt 0.625000 0.375000
vt 0.500000 0.375000
vt 0.625000 0.375000
vt 0.625000 0.375000
vt 0.625000 0.375000
vt 0.625000 0.375000
vt 0.625000 0.375000
vt 0.500000 1.000000
vt 1.000000 1.000000
vt 1.000000 0.000000
vt 0.500000 0.000000
vt 0.500000 1.000000
vt 1.000000 1.000000
vt 1.000000 0.000000
vt 0.500000 0.000000
vt 0.000000 1.000000
vt 0.000000 1.000000
vt 0.000000 1.000000
vt 0.000000 0.000000
vt 0.500000 1.000000
vt 0.500000 0.000000
vt 0.000000 0.000000
vt 0.000000 1.000000
vt 0.500000 1.000000
vt 0.500000 0.000000
vn 0.000000 0.306009 0.952029
vn 0.000000 0.306009 0.952029
vn 0.000000 0.306009 0.952029
vn 0.000000 0.306009 0.952029
vn 0.000000 -0.707108 0.707106
vn 0.000000 -0.707108 0.707106
vn 0.000000 -0.707108 0.707106
vn 0.000000 -0.707108 0.707105
vn 0.000000 0.707106 0.707108
vn 0.000000 0.707106 0.707108
vn 0.000000 0.707106 0.707107
vn 0.000000 0.707106 0.707107
vn 0.000000 0.000000 1.000000
vn 0.000000 0.000000 1.000000
vn 0.000000 0.000000 1.000000
vn 0.000000 0.000000 1.000000
vn 0.000000 -1.000000 0.000003
vn 0.000000 -1.000000 0.000003
vn 0.000000 -1.000000 0.000003
vn 0.000000 -1.000000 0.000003
vn 0.000000 1.000000 -0.000000
vn 0.000000 1.000000 -0.000000
vn 0.000000 1.000000 -0.000001
vn 0.000000 1.000000 -0.000001
vn 1.000000 0.000000 0.000000
vn 1.000000 0.000000 0.000000
vn 1.000000 0.000000 0.000000
vn 1.000000 0.000000 0.000000
vn 0.000000 -0.306009 -0.952029
vn 0.000000 -0.306009 -0.952029
vn 0.000000 -0.306009 -0.952029
vn 0.000000 -0.306009 -0.952029
vn 0.000000 1.000000 0.000000
vn 0.000000 1.000000 0.000000
vn 0.000000 1.000000 0.000000
vn 0.707106 0.707107 0.000000
vn 0.707106 0.707107 0.000000
vn 0.707106 0.707107 0.000000
vn 0.707106 0.707107 0.000000
vn 1.000000 0.000000 0.000000
vn 1.000000 0.000000 0.000000
vn 1.000000 0.000000 0.000000
vn 1.000000 0.000000 0.000000
vn 0.707106 -0.707107 0.000000
vn 0.707106 -0.707107 0.000000
vn 0.707106 -0.707107 0.000000
vn 0.707106 -0.707107 0.000000
vn 0.000000 -1.000000 0.000000
vn 0.000000 -1.000000 0.000000
vn 1.000000 -0.000000 0.000000
vn 1.000000 -0.000000 0.000000
vn 1.000000 0.000000 0.000000
vn 1.000000 0.000000 0.000000
vn 0.000000 -1.000000 0.000000
vn 0.000000 -1.000000 0.000000
vn 0.000000 -1.000000 0.000000
vn 0.000000 -1.000000 0.000000
vn 1.000000 -0.000002 0.000000
vn 1.000000 -0.000002 0.000000
vn 1.000000 -0.000002 0.000000
vn 1.000000 -0.000002 0.000000
vn 0.000000 1.000000 0.000000
vn 0.000000 1.000000 0.000000
vn 0.000000 1.000000 0.000000
vn 0.000000 1.000000 0.000000
vn 1.000000 -0.000002 0.000000
vn 1.000000 -0.000001 0.000000
vn 1.000000 -0.000001 0.000000
vn 1.000000 -0.000002 0.000000
vn 0.000000 0.306009 -0.952029
vn 0.000000 0.306009 -0.952029
vn 0.000000 0.306009 -0.952029
vn 0.000000 0.306009 -0.952029
vn 0.000000 -0.707108 -0.707106
vn 0.000000 -0.707108 -0.707105
vn 0.000000 -0.707108 -0.707106
vn 0.000000 -0.707108 -0.707106
vn 0.000000 0.707107 -0.707107
vn 0.000000 0.707106 -0.707107
vn 0.000000 0.707106 -0.707107
vn 0.000000 0.707107 -0.707107
vn 0.000000 0.000000 -1.000000
vn 0.000000 0.000000 -1.000000
vn 0.000000 0.000000 -1.000000
vn 0.000000 0.000000 -1.000000
vn 0.000000 -1.000000 -0.000003
vn 0.000000 -1.000000 -0.000003
vn 0.000000 -1.000000 -0.000003
vn 0.000000 -1.000000 -0.000003
vn 0.000000 1.000000 0.000000
vn 0.000000 1.000000 0.000000
vn 0.000000 1.000000 0.000001
vn 0.000000 1.000000 0.000000
vn 1.000000 0.000000 0.000000
vn 1.000000 0.000000 0.000000
vn 1.000000 0.000000 0.000000
vn 1.000000 0.000000 0.000000
vn 0.000000 -0.306009 0.952029
vn 0.000000 -0.306009 0.952029
vn 0.000000 -0.306009 0.952029
vn 0.000000 -0.306009 0.952029
vn 0.707106 0.707107 0.000000
vn 0.707106 0.707107 0.000000
vn 1.000000 0.000000 0.000000
vn 1.000000 0.000000 0.000000
vn 0.707106 -0.707107 0.000000
vn 0.707106 -0.707107 0.000000
vn 1.000000 -0.000000 0.000000
vn 1.000000 -0.000000 0.000000
vn 0.000000 -1.000000 0.000000
vn 0.000000 -1.000000 0.000000
vn 1.000000 -0.000002 0.000000
vn 1.000000 -0.000002 0.000000
vn 0.000000 1.000000 0.000000
vn 0.000000 1.000000 0.000000
vn 1.000000 0.000000 0.000000
vn 1.000000 0.000000 0.000000
vn 0.000000 0.306009 0.952029
vn 0.000000 0.306009 0.952029
vn 0.000000 -0.707108 0.707105
vn 0.000000 -0.707108 0.707106
vn 0.000000 0.707107 0.707107
vn 0.000000 0.707107 0.707107
vn 0.000000 0.000000 1.000000
vn 0.000000 0.000000 1.000000
vn 0.000000 -1.000000 0.000003
vn 0.000000 -1.000000 0.000003
vn 0.000000 1.000000 0.000000
vn 0.000000 1.000000 0.000000
vn -1.000000 0.000000 0.000000
vn -1.000000 0.000000 0.000000
vn -1.000000 0.000000 0.000000
vn -1.000000 0.000000 0.000000
vn 0.000000 -0.306009 -0.952029
vn 0.000000 -0.306009 -0.952029
vn 0.000000 -0.306009 -0.952029
vn 0.000000 -0.306009 -0.952029
vn 0.000000 1.000000 0.000000
vn 0.000000 1.000000 0.000000
vn -0.707106 0.707107 0.000000
vn -0.707106 0.707107 0.000000
vn -0.707106 0.707107 0.000000
vn -0.707106 0.707107 0.000000
vn -1.000000 0.000000 0.000000
vn -1.000000 0.000000 0.000000
vn -1.000000 0.000000 0.000000
vn -1.000000 0.000000 0.000000
vn -0.707106 -0.707107 0.000000
vn -0.707106 -0.707107 0.000000
vn -0.707106 -0.707107 0.000000
vn -0.707106 -0.707107 0.000000
vn 0.000000 -1.000000 0.000000
vn 0.000000 -1.000000 0.000000
vn -1.000000 -0.000000 0.000000
vn -1.000000 -0.000000 0.000000
vn -1.000000 -0.000000 0.000000
vn -1.000000 -0.000000 0.000000
vn 0.000000 -1.000000 0.000000
vn 0.000000 -1.000000 0.000000
vn 0.000000 -1.000000 0.000000
vn 0.000000 -1.000000 0.000000
vn -1.000000 -0.000002 0.000000
vn -1.000000 -0.000002 0.000000
vn -1.000000 -0.000002 0.000000
vn -1.000000 -0.000002 0.000000
vn 0.000000 1.000000 0.000000
vn 0.000000 1.000000 0.000000
vn 0.000000 1.000000 0.000000
vn 0.000000 1.000000 0.000000
vn -1.000000 0.000000 0.000000
vn -1.000000 0.000000 0.000000
vn -1.000000 -0.000001 0.000000
vn -1.000000 -0.000001 0.000000
vn 0.000000 0.306009 -0.952029
vn 0.000000 0.306009 -0.952029
vn 0.000000 -0.707108 -0.707106
vn 0.000000 -0.707108 -0.707105
vn 0.000000 0.707106 -0.707108
vn 0.000000 0.707106 -0.707108
vn 0.000000 0.000000 -1.000000
vn 0.000000 0.000000 -1.000000
vn 0.000000 -1.000000 -0.000003
vn 0.000000 -1.000000 -0.000003
vn 0.000000 1.000000 0.000000
vn 0.000000 1.000000 0.000001
vn -1.000000 0.000000 0.000000
vn -1.000000 0.000000 0.000000
vn -1.000000 0.000000 0.000000
vn -1.000000 0.000000 0.000000
vn 0.000000 -0.306009 0.952029
vn 0.000000 -0.306009 0.952029
vn 0.000000 -0.306009 0.952029
vn 0.000000 -0.306009 0.952029
vn -0.707106 0.707107 0.000000
vn -0.707106 0.707107 0.000000
vn -1.000000 0.000000 0.000000
vn -1.000000 0.000000 0.000000
vn -0.707106 -0.707107 0.000000
vn -0.707106 -0.707107 0.000000
vn -1.000000 0.000000 0.000000
vn -1.000000 0.000000 0.000000
vn 0.000000 -1.000000 0.000000
vn 0.000000 -1.000000 0.000000
vn -1.000000 -0.000002 0.000000
vn -1.000000 -0.000002 0.000000
vn 0.000000 1.000000 0.000000
vn 0.000000 1.000000 0.000000
vn -1.000000 -0.000002 0.000000
vn -1.000000 -0.000002 0.000000
vn 0.000000 -1.000000 0.000000
vn 0.000000 -1.000000 0.000000
vn 0.000000 -1.000000 0.000000
vn 0.000000 -1.000000 0.000000
vn 0.000000 -1.000000 0.000000
vn 0.000000 -1.000000 0.000000
vn 0.000000 -1.000000 0.000000
vn 0.000000 -1.000000 0.000000
s 1
g polySurface13
usemtl initialShadingGroup
f 13/1/1 14/2/2 2/3/3 1/4/4
s 2
f 11/5/5 12/6/6 5/7/7 4/8/8
s 3
f 7/9/9 6/10/10 9/11/11 10/12/12
s 4
f 10/12/13 11/5/14 4/8/15 7/9/16
s 5
f 12/6/17 13/13/18 1/14/19 5/7/20
s 6
f 3/15/21 8/16/22 9/11/23 6/10/24
s off
f 1/17/25 2/18/26 16/19/27 15/20/28
f 15/21/29 16/22/30 18/23/31 17/24/32
s 6
f 20/25/33 19/26/34 8/16/22 3/15/21
f 21/27/35 20/25/33 3/15/21 6/10/24
s 7
f 6/10/36 7/9/37 22/28/38 21/27/39
s 8
f 4/8/40 23/29/41 22/28/42 7/9/43
s 9
f 4/8/44 5/7/45 24/30/46 23/29/47
s 5
f 1/14/19 25/31/48 24/30/49 5/7/20
s 10
f 26/32/50 25/33/51 1/34/52 15/35/53
s 11
f 27/36/54 26/37/55 15/38/56 17/39/57
s 12
f 28/40/58 27/41/59 17/24/60 18/42/61
s 13
f 16/43/62 29/44/63 28/45/64 18/42/65
s 14
f 2/46/66 30/47/67 29/48/68 16/49/69
s 15
f 43/50/70 31/51/71 32/52/72 44/53/73
s 16
f 41/54/74 34/55/75 35/56/76 42/57/77
s 17
f 37/58/78 40/59/79 39/60/80 36/61/81
s 18
f 40/59/82 37/58/83 34/55/84 41/54/85
s 5
f 42/57/86 35/56/87 31/62/88 43/63/89
s 6
f 33/64/90 36/61/91 39/60/92 38/65/93
s off
f 31/66/94 45/67/95 46/68/96 32/69/97
f 45/70/98 47/71/99 48/72/100 46/73/101
s 6
f 20/74/33 33/64/90 38/65/93 19/75/34
f 21/76/35 36/61/91 33/64/90 20/74/33
s 7
f 36/61/102 21/76/39 22/77/38 37/58/103
s 8
f 34/55/104 37/58/105 22/77/42 23/78/41
s 9
f 34/55/106 23/78/47 24/79/46 35/56/107
s 5
f 31/62/88 35/56/87 24/79/49 25/80/48
s 10
f 26/81/50 45/82/108 31/83/109 25/84/51
s 11
f 27/85/54 47/86/110 45/87/111 26/88/55
s 12
f 28/89/58 48/90/112 47/71/113 27/91/59
s 13
f 46/92/114 48/90/115 28/93/64 29/94/63
s 14
f 32/95/116 46/96/117 29/97/68 30/98/67
s 1
f 13/99/1 49/102/118 50/101/119 14/100/2
s 2
f 11/103/5 52/106/120 53/105/121 12/104/6
s 3
f 55/107/122 10/110/12 9/109/11 54/108/123
s 4
f 10/110/13 55/107/124 52/106/125 11/103/14
s 5
f 12/104/17 53/105/126 49/112/127 13/111/18
s 6
f 51/113/128 54/108/129 9/109/23 8/114/22
s off
f 49/115/130 56/118/131 57/117/132 50/116/133
f 56/119/134 58/122/135 59/121/136 57/120/137
s 6
f 60/123/138 51/113/128 8/114/22 19/124/34
f 61/125/139 54/108/129 51/113/128 60/123/138
s 19
f 54/108/140 61/125/141 62/126/142 55/107/143
s 20
f 52/106/144 55/107/145 62/126/146 63/127/147
s 21
f 52/106/148 63/127/149 64/128/150 53/105/151
s 5
f 49/112/127 53/105/126 64/128/152 65/129/153
s 22
f 66/130/154 56/133/155 49/132/156 65/131/157
s 23
f 67/134/158 58/137/159 56/136/160 66/135/161
s 24
f 68/138/162 59/140/163 58/122/164 67/139/165
s 25
f 57/141/166 59/140/167 68/143/168 69/142/169
s 26
f 50/144/170 57/147/171 69/146/172 70/145/173
s 15
f 43/148/70 44/151/73 72/150/174 71/149/175
s 16
f 41/152/74 42/155/77 75/154/176 74/153/177
s 17
f 77/156/178 76/159/179 39/158/80 40/157/79
s 18
f 40/157/82 41/152/85 74/153/180 77/156/181
s 5
f 42/155/86 43/161/89 71/160/182 75/154/183
s 6
f 73/162/184 38/163/93 39/158/92 76/159/185
s off
f 71/164/186 72/167/187 79/166/188 78/165/189
f 78/168/190 79/171/191 81/170/192 80/169/193
s 6
f 60/172/138 19/173/34 38/163/93 73/162/184
f 61/174/139 60/172/138 73/162/184 76/159/185
s 19
f 76/159/194 77/156/195 62/175/142 61/174/141
s 20
f 74/153/196 63/176/147 62/175/146 77/156/197
s 21
f 74/153/198 75/154/199 64/177/150 63/176/149
s 5
f 71/160/182 65/178/153 64/177/152 75/154/183
s 22
f 66/179/154 65/182/157 71/181/200 78/180/201
s 23
f 67/183/158 66/186/161 78/185/202 80/184/203
s 24
f 68/187/162 67/189/165 80/169/204 81/188/205
s 25
f 79/190/206 69/192/169 68/191/168 81/188/207
s 26
f 72/193/208 70/196/173 69/195/172 79/194/209
s off
f 14/100/210 50/144/211 70/196/212 72/150/213 44/53/214 32/95/215 30/47/216 2/3/217
