# Alias OBJ Model File
# Exported from SketchUp, (c) 2000-2012 Trimble Navigation Limited
# File units = meters

mtllib semimattta.mtl

g Mesh1 Model

usemtl Material2
v 0 0.05 -0
vt 0 0
vn 0 -1 -0
v 0 0.05 -0.531862
vt 0 20.9394
v 4.07586 0.05 -0.531862
vt -160.467 20.9394
v 4.07586 0.05 -2.46186
vt -160.467 96.9237
v 0 0.05 -2.46186
vt 0 96.9237
v 0 0.05 -3
vt 0 118.11
v 6 0.05 -3
vt -236.22 118.11
v 6 0.05 -0
vt -236.22 0
f 1/1/1 2/2/1 3/3/1 4/4/1 5/5/1 6/6/1 7/7/1 8/8/1 

usemtl FrontColor
v 0 0 -0
vn 1 0 -0
v 0 0 -0.0925791
vt 3.64485 0
vt 20.9394 1.9685
vt 0 1.9685
f 9/1/2 10/9/2 2/10/2 1/11/2 

v 6 0 -0
vt 236.22 0
vn 0 1 -0
v 6 0 -3
vt 236.22 118.11
v 0 0 -3
v 0 0 -2.30258
vt 0 90.6527
vt 0 3.64485
f 11/12/3 12/13/3 13/6/3 14/14/3 10/15/3 9/1/3 

vt -118.11 0
vn -1 0 -0
vt -118.11 1.9685
f 12/16/4 11/1/4 8/11/4 7/17/4 

vn 0 0 -1
vt -236.22 1.9685
f 11/8/5 9/1/5 1/11/5 8/18/5 

vn 0 0 1
vt 236.22 1.9685
f 13/1/6 12/12/6 7/19/6 6/11/6 

vt 90.6527 0
vt 118.11 0
vt 118.11 1.9685
vt 96.9237 1.9685
f 14/20/2 13/21/2 6/22/2 5/23/2 

f 10/9/2 14/20/2 5/23/2 2/10/2 

usemtl Material2
f 2/2/1 5/5/1 4/4/1 3/3/1 

