# Alias OBJ Model File
# Exported from SketchUp, (c) 2000-2012 Trimble Navigation Limited
# File units = meters

mtllib 7delasrplint.mtl

g Mesh1 Model

usemtl Material2
v 1.2 0.463436 -0.738336
vt -47.2441 7.6531
vn 3.45666e-17 0.329372 -0.9442
v 1.2 0.331248 -0.784448
vt -47.2441 2.14129
v 0 0.331248 -0.784448
vt 1.13064e-15 2.14129
v 0 0.463436 -0.738336
vt 1.06418e-15 7.6531
f 1/1/1 2/2/1 3/3/1 4/4/1 

v 1.2 0.463436 -0.161664
vt 6.36471 18.2455
vn 1 0 -0
v 1.2 0.331248 -0.115552
vt 4.54928 13.0413
vt 30.8838 13.0413
vt 29.0684 18.2455
f 5/5/2 6/6/2 2/7/2 1/8/2 

v 0 0.463436 -0.161664
vt 0 19.3238
vn 0 0.329372 0.9442
v 0 0.331248 -0.115552
vt 0 13.812
vt 47.2441 13.812
vt 47.2441 19.3238
f 7/9/3 8/10/3 6/11/3 5/12/3 

vt -29.0684 18.2455
vn -1 0 -0
vt -30.8838 13.0413
vt -4.54928 13.0413
vt -6.36471 18.2455
f 4/13/4 3/14/4 8/15/4 7/16/4 

v 0 0.19906 -0.830561
vt -32.6992 7.837
v 0 0.19906 -0.0694395
vt -2.73384 7.837
f 3/14/4 9/17/4 10/18/4 8/15/4 

vt -47.2441 2.14129
vn 3.1456e-18 0.329372 -0.9442
v 1.2 0.19906 -0.830561
vt -47.2441 -3.37052
vt 1.08937e-16 -3.37052
vt 1.02889e-16 2.14129
f 2/19/5 11/20/5 9/21/5 3/22/5 

v 1.2 0.19906 -0.0694395
vt 2.73384 7.837
vt 32.6992 7.837
f 6/6/2 12/23/2 11/24/2 2/7/2 

vt -2.10498e-17 13.812
vn -4.36889e-18 0.329372 0.9442
vt -1.26497e-17 8.30015
vt 47.2441 8.30015
f 8/25/6 10/26/6 12/27/6 6/11/6 

vt -1.70012e-17 8.30015
vn -5.87178e-18 0.329372 0.9442
v 0 0.0668718 -0.0233274
vt -5.71134e-18 2.78834
v 1.2 0.0668718 -0.0233274
vt 47.2441 2.78834
f 10/28/7 13/29/7 14/30/7 12/27/7 

v 0 0.188993 -0.834072
vt -32.8375 7.44065
v 0 0.0668718 -0.876673
vt -34.5147 2.63275
vt -0.918401 2.63275
f 15/31/4 16/32/4 13/33/4 10/18/4 9/17/4 

vt -47.2441 -3.37052
vn 6.60733e-18 0.329372 -0.9442
v 1.2 0.0668718 -0.876673
vt -47.2441 -8.88233
vt 2.41527e-16 -8.88233
vt 2.2979e-16 -3.79029
vt 2.28823e-16 -3.37052
f 11/34/8 17/35/8 16/36/8 15/37/8 9/38/8 

vt 0.918401 2.63275
vt 34.5147 2.63275
f 12/23/2 14/39/2 17/40/2 11/24/2 

v 1.2 0 -0.9
vt 35.4331 0
v 1.2 0 -0
vt 0 0
f 18/41/2 17/40/2 14/39/2 19/42/2 

v 0 0 -0.9
vt 5.90226e-17 -11.6707
vn 1.5728e-18 0.329372 -0.9442
vt 5.74927e-17 -8.88233
vt -47.2441 -8.88233
vt -47.2441 -11.6707
f 20/43/9 16/44/9 17/45/9 18/46/9 

v 0 0 -0
vt -35.4331 0
f 21/42/4 13/33/4 16/32/4 20/47/4 

vt 47.2441 0
vt 0 2.78834
f 19/48/3 14/30/3 13/49/3 21/42/3 

usemtl FrontColor
vt 47.2441 34.5147
vn 4.69994e-18 1 -6.6092e-18
vt -1.23738e-17 34.5147
vt -1.23738e-17 0.918401
vt 47.2441 0.918401
f 17/50/10 16/51/10 13/52/10 14/53/10 

vt -47.2441 35.4331
vn 0 -1 -0
vt -47.2441 0
vt 0 35.4331
f 18/54/11 19/55/11 21/42/11 20/56/11 

vt 47.2441 32.6992
vn 1.87998e-17 1 -0
vt -1.47334e-16 32.6992
vt -1.47334e-16 2.73384
vt 47.2441 2.73384
f 11/57/12 9/58/12 10/59/12 12/60/12 

vt 47.2441 30.8838
vn 0 1 -0
vt 0 30.8838
vt 0 4.54928
vt 47.2441 4.54928
f 2/61/13 3/62/13 8/63/13 6/64/13 

usemtl Material2
v 0 0.595624 -0.692224
vt -27.2529 23.4498
v 0 0.595624 -0.207776
vt -8.18015 23.4498
f 22/65/4 4/13/4 7/16/4 23/66/4 

vt 1.11044e-15 7.6531
vn 3.60695e-17 0.329372 -0.9442
vt 1.04109e-15 13.1649
v 1.2 0.595624 -0.692224
vt -47.2441 13.1649
vt -47.2441 7.6531
f 4/67/14 22/68/14 24/69/14 1/70/14 

vt -1.04109e-15 13.1649
vn -3.60695e-17 0.329372 -0.9442
v 0 0.727812 -0.646112
vt -9.71741e-16 18.6767
v 1.2 0.727812 -0.646112
vt -47.2441 18.6767
vt -47.2441 13.1649
f 22/71/15 25/72/15 26/73/15 24/74/15 

vt -25.4375 28.654
v 0 0.727812 -0.253888
vt -9.99559 28.654
f 25/75/4 22/65/4 23/66/4 27/76/4 

usemtl FrontColor
v 1.2 0.595624 -0.207776
vt 47.2441 8.18015
vt 47.2441 27.2529
vt 0 27.2529
vt 0 8.18015
f 28/77/13 24/78/13 22/79/13 23/80/13 

usemtl Material2
v 1.2 0.727812 -0.253888
vt 9.99559 28.654
vt 8.18015 23.4498
vt 27.2529 23.4498
vt 25.4375 28.654
f 29/81/2 28/82/2 24/83/2 26/84/2 

vt 3.08212e-16 30.3474
vn 2.91143e-17 0.329372 0.9442
vt 2.52234e-16 24.8356
vt 47.2441 24.8356
vt 47.2441 30.3474
f 27/85/16 23/86/16 28/87/16 29/88/16 

vt 1.43225e-16 24.8356
vn 1.65319e-17 0.329372 0.9442
vt 1.11439e-16 19.3238
vt 47.2441 19.3238
f 23/89/17 7/90/17 5/91/17 28/87/17 

usemtl FrontColor
vt 47.2441 6.36471
vt 47.2441 29.0684
vt 0 29.0684
vt 0 6.36471
f 5/92/13 1/93/13 4/94/13 7/95/13 

usemtl Material2
f 28/82/2 5/5/2 1/8/2 24/83/2 

v 0 0.86 -0.3
vt 1.57393e-16 35.8592
vn 1.25824e-17 0.329372 0.9442
vt 1.33201e-16 30.3474
vt 47.2441 30.3474
v 1.2 0.86 -0.3
vt 47.2441 35.8592
f 30/96/18 27/97/18 29/98/18 31/99/18 

v 0 0.86 -0.6
vt -23.622 33.8583
vt -11.811 33.8583
f 32/100/4 25/75/4 27/76/4 30/101/4 

v 1.2 0.86 -0.6
vt -47.2441 24.1885
vn -3.45666e-17 0.329372 -0.9442
vt -47.2441 18.6767
vt -9.31252e-16 18.6767
vt -8.6479e-16 24.1885
f 33/102/19 26/103/19 25/104/19 32/105/19 

vt 11.811 33.8583
vt 23.622 33.8583
f 31/106/2 29/81/2 26/84/2 33/107/2 

usemtl FrontColor
vt 47.2441 9.99559
vn 3.75996e-17 1 1.15035e-16
vt 47.2441 25.4375
vt -1.07738e-15 25.4375
vt -1.07738e-15 9.99559
f 29/108/20 26/109/20 25/110/20 27/111/20 

vt 0 23.622
vt 0 11.811
vt 47.2441 11.811
vt 47.2441 23.622
f 32/112/13 30/113/13 31/114/13 33/115/13 

usemtl Material3
vt -11.811 22.3454
vn -0.659968 -0.751294 -0
v -0.00289991 0.862547 -0.2971
vt -11.6969 22.4973
vn -0.715996 -0.698104 -0
v -0.00289991 0.862547 -0.6029
vt -23.7362 22.4973
vt -23.622 22.3454
f 30/116/21 34/117/22 35/118/22 32/119/21 

vt 47.2441 13.4718
vn 0 -0.751294 0.659968
v 1.2029 0.862547 -0.2971
vt 47.3583 13.6238
vn 0 -0.698104 0.715996
vt -0.11417 13.6238
vt 0 13.4718
f 31/120/23 36/121/24 34/122/24 30/123/23 

vt 23.622 57.8396
vn 0.659968 -0.751294 -0
v 1.2029 0.862547 -0.6029
vt 23.7362 57.9915
vn 0.715996 -0.698104 -0
vt 11.6969 57.9915
vt 11.811 57.8396
f 33/124/25 37/125/26 36/126/26 31/127/25 

vt 0 40.0925
vn 0 -0.751294 -0.659968
vt 0.11417 40.2444
vn 0 -0.698104 -0.715996
vt -47.3583 40.2444
vt -47.2441 40.0925
f 32/128/27 35/129/28 37/130/28 33/131/27 

vt 0.11417 41.2807
v -0.00537312 0.865511 -0.605373
vt 0.21154 41.4326
vn 0 -0.579567 -0.814925
v 1.20537 0.865511 -0.605373
vt -47.4556 41.4326
vt -47.3583 41.2807
f 35/132/28 38/133/29 39/134/29 37/135/28 

vt -11.6969 26.1449
v -0.00537312 0.865511 -0.294627
vt -11.5995 26.2969
vn -0.814925 -0.579567 -0
vt -23.8336 26.2969
vt -23.7362 26.1449
f 34/136/22 40/137/30 38/138/30 35/139/22 

vt 47.3583 18.577
v 1.20537 0.865511 -0.294627
vt 47.4556 18.729
vn 0 -0.579567 0.814925
vt -0.21154 18.729
vt -0.11417 18.577
f 36/140/24 41/141/31 40/142/31 34/143/24 

vt 23.7362 56.4164
vt 23.8336 56.5684
vn 0.814925 -0.579567 -0
vt 11.5995 56.5684
vt 11.6969 56.4164
f 37/144/26 39/145/32 41/146/32 36/147/26 

vt 23.8336 53.6466
v 1.20736 0.86882 -0.607361
vt 23.9118 53.7986
vn 0.894427 -0.447214 -0
v 1.20736 0.86882 -0.292639
vt 11.5212 53.7986
vt 11.5995 53.6466
f 39/148/32 42/149/33 43/150/33 41/151/32 

vt 0.21154 41.483
v -0.00736068 0.86882 -0.607361
vt 0.289791 41.635
vn 0 -0.447214 -0.894427
vt -47.5339 41.635
vt -47.4556 41.483
f 38/152/29 44/153/34 42/154/34 39/155/29 

vt -11.5995 29.3194
v -0.00736068 0.86882 -0.292639
vt -11.5212 29.4713
vn -0.894427 -0.447214 -0
vt -23.9118 29.4713
vt -23.8336 29.3194
f 40/156/30 45/157/35 44/158/35 38/159/30 

vt 47.4556 23.2376
vt 47.5339 23.3895
vn 0 -0.447214 0.894427
vt -0.289791 23.3895
vt -0.21154 23.2376
f 41/160/31 43/161/36 45/162/36 40/163/31 

vt 47.5339 27.3424
v 1.20882 0.872395 -0.291185
vt 47.5911 27.4943
vn 0 -0.3042 0.952608
v -0.00881521 0.872395 -0.291185
vt -0.347055 27.4943
vt -0.289791 27.3424
f 43/164/36 46/165/37 47/166/37 45/167/36 

vt 23.9118 49.5962
v 1.20882 0.872395 -0.608815
vt 23.9691 49.7482
vn 0.952608 -0.3042 -0
vt 11.464 49.7482
vt 11.5212 49.5962
f 42/168/33 48/169/38 46/170/38 43/171/33 

vt 0.289791 40.6947
v -0.00881521 0.872395 -0.608815
vt 0.347055 40.8466
vn 0 -0.3042 -0.952608
vt -47.5911 40.8466
vt -47.5339 40.6947
f 44/172/34 49/173/39 48/174/39 42/175/34 

vt -11.5212 31.7931
vt -11.464 31.9451
vn -0.952608 -0.3042 -0
vt -23.9691 31.9451
vt -23.9118 31.7931
f 45/176/35 47/177/40 49/178/40 44/179/35 

vt -11.464 33.5072
v -0.00970203 0.876152 -0.290298
vt -11.4291 33.6592
vn -0.988081 -0.153935 -0
v -0.00970203 0.876152 -0.609702
vt -24.004 33.6592
vt -23.9691 33.5072
f 47/180/40 50/181/41 51/182/41 49/183/40 

vt 47.5911 30.7936
v 1.2097 0.876152 -0.290298
vt 47.6261 30.9455
vn 0 -0.153935 0.988081
vt -0.38197 30.9455
vt -0.347055 30.7936
f 46/184/37 52/185/42 50/186/42 47/187/37 

vt 23.9691 44.3617
v 1.2097 0.876152 -0.609702
vt 24.004 44.5136
vn 0.988081 -0.153935 -0
vt 11.4291 44.5136
vt 11.464 44.3617
f 48/188/38 53/189/43 52/190/43 46/191/38 

vt 0.347055 38.9344
vt 0.38197 39.0864
vn 0 -0.153935 -0.988081
vt -47.6261 39.0864
vt -47.5911 38.9344
f 49/192/39 51/193/44 53/194/44 48/195/39 

vt 0.38197 36.2443
v -0.01 0.88 -0.61
vt 0.393701 36.3962
vn 0 -6.95966e-18 -1
v 1.21 0.88 -0.61
vt -47.6378 36.3962
vt -47.6261 36.2443
f 51/196/44 54/197/45 55/198/45 53/199/44 

vt -11.4291 34.4207
v -0.01 0.88 -0.29
vt -11.4173 34.5727
vn -1 -6.95966e-18 -0
vt -24.0157 34.5727
vt -24.004 34.4207
f 50/200/41 56/201/46 54/202/46 51/203/41 

vt 47.6261 33.5089
v 1.21 0.88 -0.29
vt 47.6378 33.6609
vn 0 -6.95966e-18 1
vt -0.393701 33.6609
vt -0.38197 33.5089
f 52/204/42 57/205/47 56/206/47 50/207/42 

vt 24.004 38.0678
vt 24.0157 38.2198
vn 1 -6.95966e-18 -0
vt 11.4173 38.2198
vt 11.4291 38.0678
f 53/208/43 55/209/48 57/210/48 52/211/43 

vt 24.0157 30.8648
v 1.2097 0.883848 -0.609702
vt 24.004 31.0167
vn 0.988081 0.153935 -0
v 1.2097 0.883848 -0.290298
vt 11.4291 31.0167
vt 11.4173 30.8648
f 55/212/48 58/213/49 59/214/49 57/215/48 

vt 0.393701 32.6883
v -0.00970203 0.883848 -0.609702
vt 0.38197 32.8403
vn 0 0.153935 -0.988081
vt -47.6261 32.8403
vt -47.6378 32.6883
f 54/216/45 60/217/50 58/218/50 55/219/45 

vt -11.4173 34.5119
v -0.00970203 0.883848 -0.290298
vt -11.4291 34.6639
vn -0.988081 0.153935 -0
vt -24.004 34.6639
vt -24.0157 34.5119
f 56/220/46 61/221/51 60/222/51 54/223/46 

vt 47.6378 35.4237
vt 47.6261 35.5756
vn 0 0.153935 0.988081
vt -0.38197 35.5756
vt -0.393701 35.4237
f 57/224/47 59/225/52 61/226/52 56/227/47 

vt 47.6261 36.4922
v 1.20882 0.887605 -0.291185
vt 47.5911 36.6441
vn 0 0.3042 0.952608
v -0.00881521 0.887605 -0.291185
vt -0.347055 36.6441
vt -0.38197 36.4922
f 59/228/52 62/229/53 63/230/53 61/231/52 

vt 24.004 22.9241
v 1.20882 0.887605 -0.608815
vt 23.9691 23.0761
vn 0.952608 0.3042 -0
vt 11.464 23.0761
vt 11.4291 22.9241
f 58/232/49 64/233/54 62/234/54 59/235/49 

vt 0.38197 28.3513
v -0.00881521 0.887605 -0.608815
vt 0.347055 28.5033
vn 0 0.3042 -0.952608
vt -47.5911 28.5033
vt -47.6261 28.3513
f 60/236/50 65/237/55 64/238/55 58/239/50 

vt -11.4291 33.7786
vt -11.464 33.9305
vn -0.952608 0.3042 -0
vt -23.9691 33.9305
vt -24.004 33.7786
f 61/240/51 63/241/56 65/242/56 60/243/51 

vt -11.464 32.2382
v -0.00736068 0.89118 -0.292639
vt -11.5212 32.3902
vn -0.894427 0.447214 -0
v -0.00736068 0.89118 -0.607361
vt -23.9118 32.3902
vt -23.9691 32.2382
f 63/244/56 66/245/57 67/246/57 65/247/56 

vt 47.5911 36.689
v 1.20736 0.89118 -0.292639
vt 47.5339 36.8409
vn 0 0.447214 0.894427
vt -0.289791 36.8409
vt -0.347055 36.689
f 62/248/53 68/249/58 66/250/58 63/251/53 

vt 23.9691 14.4352
v 1.20736 0.89118 -0.607361
vt 23.9118 14.5871
vn 0.894427 0.447214 -0
vt 11.5212 14.5871
vt 11.464 14.4352
f 64/252/54 69/253/59 68/254/59 62/255/54 

vt 0.347055 23.3367
vt 0.289791 23.4887
vn 0 0.447214 -0.894427
vt -47.5339 23.4887
vt -47.5911 23.3367
f 65/256/55 67/257/60 69/258/60 64/259/55 

vt 0.289791 17.7639
v -0.00537312 0.894489 -0.605373
vt 0.21154 17.9159
vn 0 0.579567 -0.814925
v 1.20537 0.894489 -0.605373
vt -47.4556 17.9159
vt -47.5339 17.7639
f 67/260/60 70/261/61 71/262/61 69/263/60 

vt -11.5212 29.9276
v -0.00537312 0.894489 -0.294627
vt -11.5995 30.0795
vn -0.814925 0.579567 -0
vt -23.8336 30.0795
vt -23.9118 29.9276
f 66/264/57 72/265/62 70/266/62 67/267/57 

vt 47.5339 36.0094
v 1.20537 0.894489 -0.294627
vt 47.4556 36.1613
vn 0 0.579567 0.814925
vt -0.21154 36.1613
vt -0.289791 36.0094
f 68/268/58 73/269/63 72/270/63 66/271/58 

vt 23.9118 5.60031
vt 23.8336 5.75228
vn 0.814925 0.579567 -0
vt 11.5995 5.75228
vt 11.5212 5.60031
f 69/272/59 71/273/64 73/274/64 68/275/59 

vt 23.8336 -3.36985
v 1.2029 0.897453 -0.6029
vt 23.7362 -3.21788
vn 0.715996 0.698104 -0
v 1.2029 0.897453 -0.2971
vt 11.6969 -3.21788
vt 11.5995 -3.36985
f 71/276/64 74/277/65 75/278/65 73/279/64 

vt 0.21154 11.7659
v -0.00289991 0.897453 -0.6029
vt 0.11417 11.9179
vn 0 0.698104 -0.715996
vt -47.3583 11.9179
vt -47.4556 11.7659
f 70/280/61 76/281/66 74/282/66 71/283/61 

vt -11.5995 26.9017
v -0.00289991 0.897453 -0.2971
vt -11.6969 27.0536
vn -0.715996 0.698104 -0
vt -23.7362 27.0536
vt -23.8336 26.9017
f 72/284/62 77/285/67 76/286/67 70/287/62 

vt 47.4556 34.4696
vt 47.3583 34.6215
vn 0 0.698104 0.715996
vt -0.11417 34.6215
vt -0.21154 34.4696
f 73/288/63 75/289/68 77/290/68 72/291/63 

vt 47.3583 32.1063
v 1.2 0.9 -0.3
vt 47.2441 32.2582
vn 0 0.751294 0.659968
v 0 0.9 -0.3
vt 0 32.2582
vt -0.11417 32.1063
f 75/292/68 78/293/69 79/294/69 77/295/68 

vt 23.7362 -12.2615
v 1.2 0.9 -0.6
vt 23.622 -12.1095
vn 0.659968 0.751294 -0
vt 11.811 -12.1095
vt 11.6969 -12.2615
f 74/296/65 80/297/70 78/298/70 75/299/65 

vt 0.11417 5.48561
v 0 0.9 -0.6
vt 0 5.63758
vn 0 0.751294 -0.659968
vt -47.2441 5.63758
vt -47.3583 5.48561
f 76/300/66 81/301/71 80/302/71 74/303/66 

vt -11.6969 23.2327
vt -11.811 23.3847
vn -0.659968 0.751294 -0
vt -23.622 23.3847
vt -23.7362 23.2327
f 77/304/67 79/305/72 81/306/72 76/307/67 

f 78/114/13 80/115/13 81/112/13 79/113/13 

