# This file uses centimeters as units for non-parametric coordinates.

mtllib ribba.mtl
g default
v 205.000000 187.088806 -0.574024
v 205.000000 186.763657 -1.060660
v 205.000000 186.277008 -1.385819
v 205.000000 185.702988 -1.500000
v 205.000000 185.128967 -1.385820
v 205.000000 184.642334 -1.060661
v 205.000000 184.317169 -0.574026
v 205.000000 184.202988 -0.000001
v 205.000000 184.317169 0.574025
v 205.000000 184.642334 1.060660
v 205.000000 185.128967 1.385819
v 205.000000 185.702988 1.500000
v 205.000000 186.277008 1.385819
v 205.000000 186.763657 1.060660
v 205.000000 187.088806 0.574025
v 205.000000 187.202988 0.000000
v 4.999998 187.088806 -0.574024
v 4.999998 186.763657 -1.060660
v 4.999998 186.277008 -1.385819
v 4.999998 185.702988 -1.500000
v 4.999998 185.128967 -1.385820
v 4.999998 184.642334 -1.060661
v 4.999998 184.317169 -0.574026
v 4.999998 184.202988 -0.000001
v 4.999998 184.317169 0.574025
v 4.999998 184.642334 1.060660
v 4.999998 185.128967 1.385819
v 4.999998 185.702988 1.500000
v 4.999998 186.277008 1.385819
v 4.999998 186.763657 1.060660
v 4.999998 187.088806 0.574025
v 4.999998 187.202988 0.000000
v 205.000000 185.702988 0.000000
v 4.999998 185.702988 0.000000
v 205.000000 0.000000 10.000000
v 215.000000 0.000000 10.000000
v 205.000000 270.000000 10.000000
v 215.000000 270.000000 10.000000
v 205.000000 270.000000 -10.000000
v 215.000000 270.000000 -10.000000
v 205.000000 0.000000 -10.000000
v 215.000000 0.000000 -10.000000
v 205.000000 4.999924 10.000000
v 215.000000 4.999924 10.000000
v 215.000000 5.000076 -10.000000
v 205.000000 5.000076 -10.000000
v 190.000000 0.000000 25.000000
v 230.000000 0.000000 25.000000
v 230.000000 4.999924 25.000000
v 190.000000 4.999924 25.000000
v 230.000000 0.000000 -25.000000
v 230.000000 5.000076 -25.000000
v 190.000000 5.000076 -25.000000
v 190.000000 0.000000 -25.000000
v -5.000000 0.000000 10.000000
v 5.000000 0.000000 10.000000
v -5.000000 270.000000 10.000000
v 5.000000 270.000000 10.000000
v -5.000000 270.000000 -10.000000
v 5.000000 270.000000 -10.000000
v -5.000000 0.000000 -10.000000
v 5.000000 0.000000 -10.000000
v -5.000000 4.999924 10.000000
v 5.000000 4.999924 10.000000
v 5.000000 5.000076 -10.000000
v -5.000000 5.000076 -10.000000
v -20.000000 0.000000 25.000000
v 20.000000 0.000000 25.000000
v 20.000000 4.999924 25.000000
v -20.000000 4.999924 25.000000
v 20.000000 0.000000 -25.000000
v 20.000000 5.000076 -25.000000
v -20.000000 5.000076 -25.000000
v -20.000000 0.000000 -25.000000
vt 0.375000 0.312500
vt 0.390625 0.312500
vt 0.390625 0.688440
vt 0.375000 0.688440
vt 0.406250 0.312500
vt 0.406250 0.688440
vt 0.421875 0.312500
vt 0.421875 0.688440
vt 0.437500 0.312500
vt 0.437500 0.688440
vt 0.453125 0.312500
vt 0.453125 0.688440
vt 0.468750 0.312500
vt 0.468750 0.688440
vt 0.484375 0.312500
vt 0.484375 0.688440
vt 0.500000 0.312500
vt 0.500000 0.688440
vt 0.515625 0.312500
vt 0.515625 0.688440
vt 0.531250 0.312500
vt 0.531250 0.688440
vt 0.546875 0.312500
vt 0.546875 0.688440
vt 0.562500 0.312500
vt 0.562500 0.688440
vt 0.578125 0.312500
vt 0.578125 0.688440
vt 0.593750 0.312500
vt 0.593750 0.688440
vt 0.609375 0.312500
vt 0.609375 0.688440
vt 0.625000 0.312500
vt 0.625000 0.688440
vt 0.610485 0.045765
vt 0.644356 0.096456
vt 0.500000 0.150000
vt 0.559794 0.011894
vt 0.500000 0.000000
vt 0.440206 0.011894
vt 0.389515 0.045765
vt 0.355644 0.096456
vt 0.343750 0.156250
vt 0.355644 0.216044
vt 0.389515 0.266735
vt 0.440206 0.300606
vt 0.500000 0.312500
vt 0.559794 0.300606
vt 0.610485 0.266735
vt 0.644356 0.216044
vt 0.656250 0.156250
vt 0.644356 0.903544
vt 0.610485 0.954235
vt 0.500000 0.837500
vt 0.559794 0.988106
vt 0.500000 1.000000
vt 0.440206 0.988106
vt 0.389515 0.954235
vt 0.355644 0.903544
vt 0.343750 0.843750
vt 0.355644 0.783956
vt 0.389515 0.733265
vt 0.440206 0.699394
vt 0.500000 0.687500
vt 0.559794 0.699394
vt 0.610485 0.733265
vt 0.644356 0.783956
vt 0.656250 0.843750
vt 0.375000 0.009260
vt 0.625000 0.009260
vt 0.625000 0.250000
vt 0.375000 0.250000
vt 0.625000 0.500000
vt 0.375000 0.500000
vt 0.625000 0.740740
vt 0.375000 0.740740
vt 0.375000 0.750000
vt 0.625000 0.750000
vt 0.625000 1.000000
vt 0.375000 1.000000
vt 0.875000 0.009260
vt 0.875000 0.250000
vt 0.125000 0.009260
vt 0.125000 0.250000
vt 0.375000 0.000000
vt 0.625000 0.000000
vt 0.625000 0.009260
vt 0.375000 0.009260
vt 0.875000 0.000000
vt 0.875000 0.009260
vt 0.375000 0.740740
vt 0.625000 0.740740
vt 0.625000 0.750000
vt 0.375000 0.750000
vt 0.125000 0.000000
vt 0.125000 0.009260
vt 0.375000 0.000000
vt 0.625000 0.000000
vt 0.875000 0.000000
vt 0.125000 0.000000
vt 0.375000 0.009260
vt 0.625000 0.009260
vt 0.625000 0.250000
vt 0.375000 0.250000
vt 0.625000 0.500000
vt 0.375000 0.500000
vt 0.625000 0.740740
vt 0.375000 0.740740
vt 0.375000 0.750000
vt 0.625000 0.750000
vt 0.625000 1.000000
vt 0.375000 1.000000
vt 0.875000 0.009260
vt 0.875000 0.250000
vt 0.125000 0.009260
vt 0.125000 0.250000
vt 0.375000 0.000000
vt 0.625000 0.000000
vt 0.625000 0.009260
vt 0.375000 0.009260
vt 0.875000 0.000000
vt 0.875000 0.009260
vt 0.375000 0.740740
vt 0.625000 0.740740
vt 0.625000 0.750000
vt 0.375000 0.750000
vt 0.125000 0.000000
vt 0.125000 0.009260
vt 0.375000 0.000000
vt 0.625000 0.000000
vt 0.875000 0.000000
vt 0.125000 0.000000
vn 0.000000 0.923880 -0.382683
vn 0.000000 0.707107 -0.707106
vn 0.000000 0.707107 -0.707106
vn 0.000000 0.923880 -0.382683
vn 0.000000 0.707107 -0.707106
vn 0.000000 0.382684 -0.923879
vn 0.000000 0.382684 -0.923879
vn 0.000000 0.707107 -0.707106
vn 0.000000 0.382684 -0.923879
vn 0.000000 0.000001 -1.000000
vn 0.000000 0.000001 -1.000000
vn 0.000000 0.382684 -0.923879
vn 0.000000 0.000001 -1.000000
vn 0.000000 -0.382683 -0.923880
vn 0.000000 -0.382683 -0.923880
vn 0.000000 0.000001 -1.000000
vn 0.000000 -0.382683 -0.923880
vn 0.000000 -0.707106 -0.707107
vn 0.000000 -0.707106 -0.707107
vn 0.000000 -0.382683 -0.923880
vn 0.000000 -0.707106 -0.707107
vn 0.000000 -0.923879 -0.382684
vn 0.000000 -0.923879 -0.382684
vn 0.000000 -0.707106 -0.707107
vn 0.000000 -0.923879 -0.382684
vn 0.000000 -1.000000 0.000000
vn 0.000000 -1.000000 0.000000
vn 0.000000 -0.923879 -0.382684
vn 0.000000 -1.000000 0.000000
vn 0.000000 -0.923880 0.382683
vn 0.000000 -0.923880 0.382683
vn 0.000000 -1.000000 0.000000
vn 0.000000 -0.923880 0.382683
vn 0.000000 -0.707107 0.707107
vn 0.000000 -0.707107 0.707107
vn 0.000000 -0.923880 0.382683
vn 0.000000 -0.707107 0.707107
vn 0.000000 -0.382684 0.923879
vn 0.000000 -0.382684 0.923879
vn 0.000000 -0.707107 0.707107
vn 0.000000 -0.382684 0.923879
vn 0.000000 0.000000 1.000000
vn 0.000000 0.000000 1.000000
vn 0.000000 -0.382684 0.923879
vn 0.000000 0.000000 1.000000
vn 0.000000 0.382683 0.923880
vn 0.000000 0.382683 0.923880
vn 0.000000 0.000000 1.000000
vn 0.000000 0.382683 0.923880
vn 0.000000 0.707107 0.707107
vn 0.000000 0.707107 0.707107
vn 0.000000 0.382683 0.923880
vn 0.000000 0.707107 0.707107
vn 0.000000 0.923879 0.382684
vn 0.000000 0.923879 0.382684
vn 0.000000 0.707107 0.707107
vn 0.000000 0.923879 0.382684
vn 0.000000 1.000000 0.000000
vn 0.000000 1.000000 0.000000
vn 0.000000 0.923879 0.382684
vn 0.000000 1.000000 0.000000
vn 0.000000 0.923880 -0.382683
vn 0.000000 0.923880 -0.382683
vn 0.000000 1.000000 0.000000
vn 1.000000 0.000000 0.000004
vn 1.000000 0.000000 0.000000
vn 1.000000 0.000000 0.000002
vn 1.000000 0.000000 0.000000
vn 1.000000 0.000000 0.000004
vn 1.000000 0.000000 0.000002
vn 1.000000 0.000000 0.000000
vn 1.000000 0.000000 0.000000
vn 1.000000 0.000000 0.000002
vn 1.000000 0.000000 0.000004
vn 1.000000 0.000000 0.000000
vn 1.000000 0.000000 0.000002
vn 1.000000 0.000000 0.000000
vn 1.000000 0.000000 0.000004
vn 1.000000 0.000000 0.000002
vn 1.000000 0.000000 0.000000
vn 1.000000 0.000000 0.000000
vn 1.000000 0.000000 0.000002
vn 1.000000 0.000000 0.000000
vn 1.000000 0.000000 0.000000
vn 1.000000 0.000000 0.000002
vn 1.000000 0.000000 -0.000009
vn 1.000000 0.000000 0.000000
vn 1.000000 0.000000 0.000002
vn 1.000000 0.000000 -0.000004
vn 1.000000 0.000000 -0.000009
vn 1.000000 0.000000 0.000002
vn 1.000000 0.000000 0.000005
vn 1.000000 0.000000 -0.000004
vn 1.000000 0.000000 0.000002
vn 1.000000 0.000000 -0.000004
vn 1.000000 0.000000 0.000005
vn 1.000000 0.000000 0.000002
vn 1.000000 0.000000 -0.000004
vn 1.000000 0.000000 -0.000004
vn 1.000000 0.000000 0.000002
vn 1.000000 0.000000 0.000018
vn 1.000000 0.000000 -0.000004
vn 1.000000 0.000000 0.000002
vn 1.000000 0.000000 0.000018
vn 1.000000 0.000000 0.000018
vn 1.000000 0.000000 0.000002
vn 1.000000 0.000000 0.000000
vn 1.000000 0.000000 0.000018
vn 1.000000 0.000000 0.000002
vn 1.000000 0.000000 0.000000
vn 1.000000 0.000000 0.000000
vn 1.000000 0.000000 0.000002
vn -1.000000 0.000000 0.000000
vn -1.000000 0.000000 0.000000
vn -1.000000 0.000000 0.000001
vn -1.000000 0.000000 0.000000
vn -1.000000 0.000000 -0.000004
vn -1.000000 0.000000 0.000001
vn -1.000000 0.000000 -0.000004
vn -1.000000 0.000000 0.000000
vn -1.000000 0.000000 0.000001
vn -1.000000 0.000000 0.000000
vn -1.000000 0.000000 0.000005
vn -1.000000 0.000000 0.000001
vn -1.000000 0.000000 0.000005
vn -1.000000 0.000000 0.000000
vn -1.000000 0.000000 0.000001
vn -1.000000 0.000000 0.000000
vn -1.000000 0.000000 0.000000
vn -1.000000 0.000000 0.000001
vn -1.000000 0.000000 0.000000
vn -1.000000 0.000000 0.000000
vn -1.000000 0.000000 0.000001
vn -1.000000 0.000000 0.000000
vn -1.000000 0.000000 0.000000
vn -1.000000 0.000000 0.000001
vn -1.000000 0.000000 0.000000
vn -1.000000 0.000000 0.000000
vn -1.000000 0.000000 0.000001
vn -1.000000 0.000000 0.000000
vn -1.000000 0.000000 0.000000
vn -1.000000 0.000000 0.000001
vn -1.000000 0.000000 0.000000
vn -1.000000 0.000000 -0.000005
vn -1.000000 0.000000 0.000001
vn -1.000000 0.000000 -0.000005
vn -1.000000 0.000000 -0.000005
vn -1.000000 0.000000 0.000001
vn -1.000000 0.000000 -0.000005
vn -1.000000 0.000000 0.000009
vn -1.000000 0.000000 0.000001
vn -1.000000 0.000000 0.000009
vn -1.000000 0.000000 0.000009
vn -1.000000 0.000000 0.000001
vn -1.000000 0.000000 0.000009
vn -1.000000 0.000000 0.000000
vn -1.000000 0.000000 0.000001
vn -1.000000 0.000000 0.000000
vn -1.000000 0.000000 0.000000
vn -1.000000 0.000000 0.000001
vn 0.000000 0.000000 1.000000
vn 0.000000 0.000000 1.000000
vn 0.000000 0.000000 1.000000
vn 0.000000 0.000000 1.000000
vn 0.000000 1.000000 0.000000
vn 0.000000 1.000000 0.000000
vn 0.000000 1.000000 0.000000
vn 0.000000 1.000000 0.000000
vn 0.000000 0.000000 -1.000000
vn 0.000000 0.000000 -1.000000
vn 0.000000 0.000000 -1.000000
vn 0.000000 0.000000 -1.000000
vn 0.000000 -1.000000 0.000000
vn 0.000000 -1.000000 0.000000
vn 0.000000 -1.000000 0.000000
vn 0.000000 -1.000000 0.000000
vn 1.000000 0.000000 0.000000
vn 1.000000 0.000000 0.000000
vn 1.000000 0.000000 0.000000
vn 1.000000 0.000000 0.000000
vn -1.000000 0.000000 0.000000
vn -1.000000 0.000000 0.000000
vn -1.000000 0.000000 0.000000
vn -1.000000 0.000000 0.000000
vn 0.000000 0.000000 1.000000
vn 0.000000 0.000000 1.000000
vn 0.000000 0.000000 1.000000
vn 0.000000 0.000000 1.000000
vn 1.000000 0.000000 0.000000
vn 1.000000 0.000000 0.000000
vn 1.000000 0.000000 0.000000
vn 1.000000 0.000000 0.000000
vn 0.000000 0.000000 -1.000000
vn 0.000000 0.000000 -1.000000
vn 0.000000 0.000000 -1.000000
vn 0.000000 0.000000 -1.000000
vn -1.000000 0.000000 0.000000
vn -1.000000 0.000000 0.000000
vn -1.000000 0.000000 0.000000
vn -1.000000 0.000000 0.000000
vn 0.000000 -1.000000 0.000000
vn 0.000000 -1.000000 0.000000
vn 0.000000 -1.000000 0.000000
vn 0.000000 -1.000000 0.000000
vn 0.000000 1.000000 0.000003
vn 0.000000 1.000000 0.000003
vn 0.000000 1.000000 0.000003
vn 0.000000 1.000000 0.000003
vn 0.000000 -1.000000 0.000000
vn 0.000000 -1.000000 0.000000
vn 0.000000 -1.000000 0.000000
vn 0.000000 -1.000000 0.000000
vn 0.000000 1.000000 0.000003
vn 0.000000 1.000000 0.000003
vn 0.000000 1.000000 0.000003
vn 0.000000 1.000000 0.000003
vn 0.000000 1.000000 0.000003
vn 0.000000 1.000000 0.000003
vn 0.000000 1.000000 0.000003
vn 0.000000 1.000000 0.000003
vn 0.000000 -1.000000 0.000000
vn 0.000000 -1.000000 0.000000
vn 0.000000 -1.000000 0.000000
vn 0.000000 -1.000000 0.000000
vn 0.000000 -1.000000 0.000000
vn 0.000000 -1.000000 0.000000
vn 0.000000 -1.000000 0.000000
vn 0.000000 -1.000000 0.000000
vn 0.000000 1.000000 0.000003
vn 0.000000 1.000000 0.000003
vn 0.000000 1.000000 0.000003
vn 0.000000 1.000000 0.000003
vn 0.000000 0.000000 1.000000
vn 0.000000 0.000000 1.000000
vn 0.000000 0.000000 1.000000
vn 0.000000 0.000000 1.000000
vn 0.000000 1.000000 0.000000
vn 0.000000 1.000000 0.000000
vn 0.000000 1.000000 0.000000
vn 0.000000 1.000000 0.000000
vn 0.000000 0.000000 -1.000000
vn 0.000000 0.000000 -1.000000
vn 0.000000 0.000000 -1.000000
vn 0.000000 0.000000 -1.000000
vn 0.000000 -1.000000 0.000000
vn 0.000000 -1.000000 0.000000
vn 0.000000 -1.000000 0.000000
vn 0.000000 -1.000000 0.000000
vn 1.000000 0.000000 0.000000
vn 1.000000 0.000000 0.000000
vn 1.000000 0.000000 0.000000
vn 1.000000 0.000000 0.000000
vn -1.000000 0.000000 0.000000
vn -1.000000 0.000000 0.000000
vn -1.000000 0.000000 0.000000
vn -1.000000 0.000000 0.000000
vn 0.000000 0.000000 1.000000
vn 0.000000 0.000000 1.000000
vn 0.000000 0.000000 1.000000
vn 0.000000 0.000000 1.000000
vn 1.000000 0.000000 0.000000
vn 1.000000 0.000000 0.000000
vn 1.000000 0.000000 0.000000
vn 1.000000 0.000000 0.000000
vn 0.000000 0.000000 -1.000000
vn 0.000000 0.000000 -1.000000
vn 0.000000 0.000000 -1.000000
vn 0.000000 0.000000 -1.000000
vn -1.000000 0.000000 0.000000
vn -1.000000 0.000000 0.000000
vn -1.000000 0.000000 0.000000
vn -1.000000 0.000000 0.000000
vn 0.000000 -1.000000 0.000000
vn 0.000000 -1.000000 0.000000
vn 0.000000 -1.000000 0.000000
vn 0.000000 -1.000000 0.000000
vn 0.000000 1.000000 0.000003
vn 0.000000 1.000000 0.000003
vn 0.000000 1.000000 0.000003
vn 0.000000 1.000000 0.000003
vn 0.000000 -1.000000 0.000000
vn 0.000000 -1.000000 0.000000
vn 0.000000 -1.000000 0.000000
vn 0.000000 -1.000000 0.000000
vn 0.000000 1.000000 0.000003
vn 0.000000 1.000000 0.000003
vn 0.000000 1.000000 0.000003
vn 0.000000 1.000000 0.000003
vn 0.000000 1.000000 0.000003
vn 0.000000 1.000000 0.000003
vn 0.000000 1.000000 0.000003
vn 0.000000 1.000000 0.000003
vn 0.000000 -1.000000 0.000000
vn 0.000000 -1.000000 0.000000
vn 0.000000 -1.000000 0.000000
vn 0.000000 -1.000000 0.000000
vn 0.000000 -1.000000 0.000000
vn 0.000000 -1.000000 0.000000
vn 0.000000 -1.000000 0.000000
vn 0.000000 -1.000000 0.000000
vn 0.000000 1.000000 0.000003
vn 0.000000 1.000000 0.000003
vn 0.000000 1.000000 0.000003
vn 0.000000 1.000000 0.000003
s off
g Höjdhoppsribba:pCylinder6
usemtl Höjdhoppsribba:initialShadingGroup
f 1/1/1 2/2/2 18/3/3 17/4/4
f 2/2/5 3/5/6 19/6/7 18/3/8
f 3/5/9 4/7/10 20/8/11 19/6/12
f 4/7/13 5/9/14 21/10/15 20/8/16
f 5/9/17 6/11/18 22/12/19 21/10/20
f 6/11/21 7/13/22 23/14/23 22/12/24
f 7/13/25 8/15/26 24/16/27 23/14/28
f 8/15/29 9/17/30 25/18/31 24/16/32
f 9/17/33 10/19/34 26/20/35 25/18/36
f 10/19/37 11/21/38 27/22/39 26/20/40
f 11/21/41 12/23/42 28/24/43 27/22/44
f 12/23/45 13/25/46 29/26/47 28/24/48
f 13/25/49 14/27/50 30/28/51 29/26/52
f 14/27/53 15/29/54 31/30/55 30/28/56
f 15/29/57 16/31/58 32/32/59 31/30/60
f 16/31/61 1/33/62 17/34/63 32/32/64
f 2/35/65 1/36/66 33/37/67
f 3/38/68 2/35/69 33/37/70
f 4/39/71 3/38/72 33/37/73
f 5/40/74 4/39/75 33/37/76
f 6/41/77 5/40/78 33/37/79
f 7/42/80 6/41/81 33/37/82
f 8/43/83 7/42/84 33/37/85
f 9/44/86 8/43/87 33/37/88
f 10/45/89 9/44/90 33/37/91
f 11/46/92 10/45/93 33/37/94
f 12/47/95 11/46/96 33/37/97
f 13/48/98 12/47/99 33/37/100
f 14/49/101 13/48/102 33/37/103
f 15/50/104 14/49/105 33/37/106
f 16/51/107 15/50/108 33/37/109
f 1/36/110 16/51/111 33/37/112
f 17/52/113 18/53/114 34/54/115
f 18/53/116 19/55/117 34/54/118
f 19/55/119 20/56/120 34/54/121
f 20/56/122 21/57/123 34/54/124
f 21/57/125 22/58/126 34/54/127
f 22/58/128 23/59/129 34/54/130
f 23/59/131 24/60/132 34/54/133
f 24/60/134 25/61/135 34/54/136
f 25/61/137 26/62/138 34/54/139
f 26/62/140 27/63/141 34/54/142
f 27/63/143 28/64/144 34/54/145
f 28/64/146 29/65/147 34/54/148
f 29/65/149 30/66/150 34/54/151
f 30/66/152 31/67/153 34/54/154
f 31/67/155 32/68/156 34/54/157
f 32/68/158 17/52/159 34/54/160
usemtl Höjdhoppsställning:initialShadingGroup
f 43/69/161 44/70/162 38/71/163 37/72/164
f 37/72/165 38/71/166 40/73/167 39/74/168
f 39/74/169 40/73/170 45/75/171 46/76/172
f 41/77/173 42/78/174 36/79/175 35/80/176
f 44/70/177 45/81/178 40/82/179 38/71/180
f 46/83/181 43/69/182 37/72/183 39/84/184
f 47/85/185 48/86/186 49/87/187 50/88/188
f 48/86/189 51/89/190 52/90/191 49/87/192
f 53/91/193 52/92/194 51/93/195 54/94/196
f 54/95/197 47/85/198 50/88/199 53/96/200
f 35/97/201 36/98/202 48/86/203 47/85/204
f 44/70/205 43/69/206 50/88/207 49/87/208
f 36/98/209 42/99/210 51/89/211 48/86/212
f 45/81/213 44/70/214 49/87/215 52/90/216
f 46/76/217 45/75/218 52/92/219 53/91/220
f 42/78/221 41/77/222 54/94/223 51/93/224
f 41/100/225 35/97/226 47/85/227 54/95/228
f 43/69/229 46/83/230 53/96/231 50/88/232
f 63/101/233 64/102/234 58/103/235 57/104/236
f 57/104/237 58/103/238 60/105/239 59/106/240
f 59/106/241 60/105/242 65/107/243 66/108/244
f 61/109/245 62/110/246 56/111/247 55/112/248
f 64/102/249 65/113/250 60/114/251 58/103/252
f 66/115/253 63/101/254 57/104/255 59/116/256
f 67/117/257 68/118/258 69/119/259 70/120/260
f 68/118/261 71/121/262 72/122/263 69/119/264
f 73/123/265 72/124/266 71/125/267 74/126/268
f 74/127/269 67/117/270 70/120/271 73/128/272
f 55/129/273 56/130/274 68/118/275 67/117/276
f 64/102/277 63/101/278 70/120/279 69/119/280
f 56/130/281 62/131/282 71/121/283 68/118/284
f 65/113/285 64/102/286 69/119/287 72/122/288
f 66/108/289 65/107/290 72/124/291 73/123/292
f 62/110/293 61/109/294 74/126/295 71/125/296
f 61/132/297 55/129/298 67/117/299 74/127/300
f 63/101/301 66/115/302 73/128/303 70/120/304
