# Alias OBJ Model File
# Exported from SketchUp, (c) 2000-2012 Trimble Navigation Limited
# File units = meters

mtllib 2delarsplint.mtl

g Mesh1 Model

usemtl Material2
v 0.01 0.264376 -0.392224
vt -15.4419 10.4085
vn -1 0 -0
v 0.01 0.132188 -0.438336
vt -17.2573 5.20425
v 0.01 0.132188 -0.0461121
vt -1.81544 5.20425
v 0.01 0.264376 -0.0922242
vt -3.63087 10.4085
f 1/1/1 2/2/1 3/3/1 4/4/1 

v 1.21 0.264376 -0.392224
vt -47.6378 4.74158
vn -3.45666e-17 0.329372 -0.9442
v 1.21 0.132188 -0.438336
vt -47.6378 -0.770229
vt -0.393701 -0.770229
vt -0.393701 4.74158
f 5/5/2 6/6/2 2/7/2 1/8/2 

v 1.21 0.264376 -0.0922242
vt 3.63087 10.4085
vn 1 0 -0
v 1.21 0.132188 -0.0461121
vt 1.81544 5.20425
vt 17.2573 5.20425
vt 15.4419 10.4085
f 7/9/3 8/10/3 6/11/3 5/12/3 

vt 0.393701 11.0236
vn 1.25824e-17 0.329372 0.9442
vt 0.393701 5.51181
vt 47.6378 5.51181
vt 47.6378 11.0236
f 4/13/4 3/14/4 8/15/4 7/16/4 

usemtl FrontColor
vt 47.6378 1.81544
vn 3.75996e-17 1 1.15035e-16
vt 47.6378 17.2573
vt 0.393701 17.2573
vt 0.393701 1.81544
f 8/17/5 6/18/5 2/19/5 3/20/5 

usemtl Material2
v 1.21 0 -4.51195e-17
vt 1.77636e-15 0
v 1.21 0 -0.484448
vt 19.0728 0
f 8/10/3 9/21/3 10/22/3 6/11/3 

vn 2.91143e-17 0.329372 0.9442
v 0.01 0 -0
vt 0.393701 -3.99848e-18
vt 47.6378 1.01266e-16
f 3/14/6 11/23/6 9/24/6 8/15/6 

v 0.01 0 -0.484448
vt -19.0728 0
vt 0 0
f 2/2/1 12/25/1 11/26/1 3/3/1 

vt -0.393701 -6.28204
vn -3.60695e-17 0.329372 -0.9442
vt -0.393701 -0.770229
vt -47.6378 -0.770229
vt -47.6378 -6.28204
f 12/27/7 2/28/7 6/29/7 10/30/7 

usemtl FrontColor
vt 0.393701 15.4419
vn 0 1 -0
vt 0.393701 3.63087
vt 47.6378 3.63087
vt 47.6378 15.4419
f 1/31/8 4/32/8 7/33/8 5/34/8 

usemtl Material3
vt -3.63087 6.57349
vn -0.659968 -0.751294 -0
v 0.00710009 0.266923 -0.0893243
vt -3.5167 6.72546
vn -0.715996 -0.698104 -0
v 0.00710009 0.266923 -0.395124
vt -15.5561 6.72546
vt -15.4419 6.57349
f 4/35/9 13/36/10 14/37/10 1/38/9 

vt 47.6378 4.14142
vn 0 -0.751294 0.659968
v 1.2129 0.266923 -0.0893243
vt 47.752 4.29339
vn 0 -0.698104 0.715996
vt 0.279531 4.29339
vt 0.393701 4.14142
f 7/39/11 15/40/12 13/41/12 4/42/11 

vt 15.4419 42.6593
vn 0.659968 -0.751294 -0
v 1.2129 0.266923 -0.395124
vt 15.5561 42.8112
vn 0.715996 -0.698104 -0
vt 3.5167 42.8112
vt 3.63087 42.6593
f 5/43/13 16/44/14 15/45/14 7/46/13 

vt -0.393701 18.4707
vn 0 -0.751294 -0.659968
vt -0.279531 18.6226
vn 0 -0.698104 -0.715996
vt -47.752 18.6226
vt -47.6378 18.4707
f 1/47/15 14/48/16 16/49/16 5/50/15 

vt -0.279531 18.0357
v 0.00462688 0.269887 -0.397597
vt -0.182161 18.1876
vn 0 -0.579567 -0.814925
v 1.21537 0.269887 -0.397597
vt -47.8493 18.1876
vt -47.752 18.0357
f 14/51/16 17/52/17 18/53/17 16/54/16 

vt -3.5167 7.88904
v 0.00462688 0.269887 -0.0868511
vt -3.41933 8.041
vn -0.814925 -0.579567 -0
vt -15.6534 8.041
vt -15.5561 7.88904
f 13/55/10 19/56/18 17/57/18 14/58/10 

vt 47.752 5.81483
v 1.21537 0.269887 -0.0868511
vt 47.8493 5.96679
vn 0 -0.579567 0.814925
vt 0.182161 5.96679
vt 0.279531 5.81483
f 15/59/12 20/60/19 19/61/19 13/62/12 

vt 15.5561 38.6651
vt 15.6534 38.8171
vn 0.814925 -0.579567 -0
vt 3.41933 38.8171
vt 3.5167 38.6651
f 16/63/14 18/64/20 20/65/20 15/66/14 

vt 15.6534 33.7474
v 1.21736 0.273196 -0.399585
vt 15.7317 33.8994
vn 0.894427 -0.447214 -0
v 1.21736 0.273196 -0.0848635
vt 3.34108 33.8994
vt 3.41933 33.7474
f 18/67/20 21/68/21 22/69/21 20/70/20 

vt -0.182161 17.1689
v 0.00263932 0.273196 -0.399585
vt -0.10391 17.3209
vn 0 -0.447214 -0.894427
vt -47.9276 17.3209
vt -47.8493 17.1689
f 17/71/17 23/72/22 21/73/22 18/74/17 

vt -3.41933 9.01471
v 0.00263932 0.273196 -0.0848635
vt -3.34108 9.16668
vn -0.894427 -0.447214 -0
vt -15.7317 9.16668
vt -15.6534 9.01471
f 19/75/18 24/76/23 23/77/23 17/78/18 

vt 47.8493 7.34781
vt 47.9276 7.49977
vn 0 -0.447214 0.894427
vt 0.10391 7.49977
vt 0.182161 7.34781
f 20/79/19 22/80/24 24/81/24 19/82/19 

vt 47.9276 8.70382
v 1.21882 0.276771 -0.083409
vt 47.9849 8.85578
vn 0 -0.3042 0.952608
v 0.00118479 0.276771 -0.083409
vt 0.0466455 8.85578
vt 0.10391 8.70382
f 22/83/24 25/84/25 26/85/25 24/86/24 

vt 15.7317 28.0235
v 1.21882 0.276771 -0.401039
vt 15.789 28.1754
vn 0.952608 -0.3042 -0
vt 3.28382 28.1754
vt 3.34108 28.0235
f 21/87/21 27/88/26 25/89/26 22/90/21 

vt -0.10391 15.891
v 0.00118479 0.276771 -0.401039
vt -0.0466455 16.043
vn 0 -0.3042 -0.952608
vt -47.9849 16.043
vt -47.9276 15.891
f 23/91/22 28/92/27 27/93/27 21/94/22 

vt -3.34108 9.92369
vt -3.28382 10.0757
vn -0.952608 -0.3042 -0
vt -15.789 10.0757
vt -15.7317 9.92369
f 24/95/23 26/96/28 28/97/28 23/98/23 

vt -3.28382 10.5943
v 0.000297974 0.280528 -0.0825222
vt -3.2489 10.7463
vn -0.988081 -0.153935 -0
v 0.000297974 0.280528 -0.401926
vt -15.8239 10.7463
vt -15.789 10.5943
f 26/99/28 29/100/29 30/101/29 28/102/28 

vt 47.9849 9.85054
v 1.2197 0.280528 -0.0825222
vt 48.0198 10.0025
vn 0 -0.153935 0.988081
vt 0.0117313 10.0025
vt 0.0466455 9.85054
f 25/103/25 31/104/30 29/105/30 26/106/25 

vt 15.789 21.6297
v 1.2197 0.280528 -0.401926
vt 15.8239 21.7816
vn 0.988081 -0.153935 -0
vt 3.2489 21.7816
vt 3.28382 21.6297
f 27/107/26 32/108/31 31/109/31 25/110/26 

vt -0.0466455 14.2326
vt -0.0117313 14.3845
vn 0 -0.153935 -0.988081
vt -48.0198 14.3845
vt -47.9849 14.2326
f 28/111/27 30/112/32 32/113/32 27/114/27 

vt -0.0117313 12.233
v 1.40998e-18 0.284376 -0.402224
vt -5.55112e-17 12.385
vn 0 -6.95966e-18 -1
v 1.22 0.284376 -0.402224
vt -48.0315 12.385
vt -48.0198 12.233
f 30/115/32 33/116/33 34/117/33 32/118/32 

vt -3.2489 11.0105
v 0 0.284376 -0.0822242
vt -3.23717 11.1625
vn -1 -6.95966e-18 -0
vt -15.8356 11.1625
vt -15.8239 11.0105
f 29/119/29 35/120/34 33/121/34 30/122/29 

vt 48.0198 10.7606
v 1.22 0.284376 -0.0822242
vt 48.0315 10.9126
vn 0 -6.95966e-18 1
vt 0 10.9126
vt 0.0117313 10.7606
f 31/123/30 36/124/35 35/125/35 29/126/30 

vt 15.8239 14.7185
vt 15.8356 14.8704
vn 1 -6.95966e-18 -0
vt 3.23717 14.8704
vt 3.2489 14.7185
f 32/127/31 34/128/36 36/129/36 31/130/31 

vt 15.8356 7.45457
v 1.2197 0.288224 -0.401926
vt 15.8239 7.60654
vn 0.988081 0.153935 -0
v 1.2197 0.288224 -0.0825222
vt 3.2489 7.60654
vt 3.23717 7.45457
f 34/131/36 37/132/37 38/133/37 36/134/36 

vt -5.55112e-17 9.94002
v 0.000297974 0.288224 -0.401926
vt -0.0117313 10.092
vn 0 0.153935 -0.988081
vt -48.0198 10.092
vt -48.0315 9.94002
f 33/135/33 39/136/38 37/137/38 34/138/33 

v 0.000297974 0.288224 -0.0825222
vt -3.2489 11.3145
vn -0.988081 0.153935 -0
vt -15.8239 11.3145
f 35/120/34 40/139/39 39/140/39 33/121/34 

vt 48.0315 11.4124
vt 48.0198 11.5644
vn 0 0.153935 0.988081
vt 0.0117313 11.5644
vt 0 11.4124
f 36/141/35 38/142/40 40/143/40 35/144/35 

vt 48.0198 11.7903
v 1.21882 0.291981 -0.083409
vt 47.9849 11.9423
vn 0 0.3042 0.952608
v 0.00118479 0.291981 -0.083409
vt 0.0466455 11.9423
vt 0.0117313 11.7903
f 38/145/40 41/146/41 42/147/41 40/148/40 

vt 15.8239 0.0111819
v 1.21882 0.291981 -0.401039
vt 15.789 0.163146
vn 0.952608 0.3042 -0
vt 3.28382 0.163146
vt 3.2489 0.0111819
f 37/149/37 43/150/42 41/151/42 38/152/37 

vt -0.0117313 7.40828
v 0.00118479 0.291981 -0.401039
vt -0.0466455 7.56025
vn 0 0.3042 -0.952608
vt -47.9849 7.56025
vt -48.0198 7.40828
f 39/153/38 44/154/43 43/155/43 37/156/38 

vt -3.2489 11.0466
vt -3.28382 11.1985
vn -0.952608 0.3042 -0
vt -15.789 11.1985
vt -15.8239 11.0466
f 40/157/39 42/158/44 44/159/44 39/160/39 

vt -3.28382 10.6655
v 0.00263932 0.295556 -0.0848635
vt -3.34108 10.8174
vn -0.894427 0.447214 -0
v 0.00263932 0.295556 -0.399585
vt -15.7317 10.8174
vt -15.789 10.6655
f 42/161/44 45/162/45 46/163/45 44/164/44 

vt 47.9849 11.8853
v 1.21736 0.295556 -0.0848635
vt 47.9276 12.0373
vn 0 0.447214 0.894427
vt 0.10391 12.0373
vt 0.0466455 11.8853
f 41/165/41 47/166/46 45/167/46 42/168/41 

vt 15.789 -7.43429
v 1.21736 0.295556 -0.399585
vt 15.7317 -7.28232
vn 0.894427 0.447214 -0
vt 3.34108 -7.28232
vt 3.28382 -7.43429
f 43/169/42 48/170/47 47/171/47 41/172/42 

vt -0.0466455 4.69813
vt -0.10391 4.8501
vn 0 0.447214 -0.894427
vt -47.9276 4.8501
vt -47.9849 4.69813
f 44/173/43 46/174/48 48/175/48 43/176/43 

vt -0.10391 1.87418
v 0.00462688 0.298865 -0.397597
vt -0.182161 2.02614
vn 0 0.579567 -0.814925
v 1.21537 0.298865 -0.397597
vt -47.8493 2.02614
vt -47.9276 1.87418
f 46/177/48 49/178/49 50/179/49 48/180/48 

vt -3.34108 10.0284
v 0.00462688 0.298865 -0.0868511
vt -3.41933 10.1803
vn -0.814925 0.579567 -0
vt -15.6534 10.1803
vt -15.7317 10.0284
f 45/181/45 51/182/50 49/183/50 46/184/45 

vt 47.9276 11.6953
v 1.21537 0.298865 -0.0868511
vt 47.8493 11.8472
vn 0 0.579567 0.814925
vt 0.182161 11.8472
vt 0.10391 11.6953
f 47/185/46 52/186/51 51/187/51 45/188/46 

vt 15.7317 -14.7044
vt 15.6534 -14.5524
vn 0.814925 0.579567 -0
vt 3.41933 -14.5524
vt 3.34108 -14.7044
f 48/189/47 50/190/52 52/191/52 47/192/47 

vt 15.6534 -21.6257
v 1.2129 0.301829 -0.395124
vt 15.5561 -21.4737
vn 0.715996 0.698104 -0
v 1.2129 0.301829 -0.0893243
vt 3.5167 -21.4737
vt 3.41933 -21.6257
f 50/193/52 53/194/53 54/195/53 52/196/52 

vt -0.182161 -0.996267
v 0.00710009 0.301829 -0.395124
vt -0.279531 -0.844303
vn 0 0.698104 -0.715996
vt -47.752 -0.844303
vt -47.8493 -0.996267
f 49/197/49 55/198/54 53/199/54 50/200/49 

vt -3.41933 9.15035
v 0.00710009 0.301829 -0.0893243
vt -3.5167 9.30232
vn -0.715996 0.698104 -0
vt -15.5561 9.30232
vt -15.6534 9.15035
f 51/201/50 56/202/55 55/203/55 49/204/50 

vt 47.8493 11.2246
vt 47.752 11.3765
vn 0 0.698104 0.715996
vt 0.279531 11.3765
vt 0.182161 11.2246
f 52/205/51 54/206/56 56/207/56 51/208/51 

vt 47.752 10.4845
v 1.21 0.304376 -0.0922242
vt 47.6378 10.6365
vn 0 0.751294 0.659968
v 0.01 0.304376 -0.0922242
vt 0.393701 10.6365
vt 0.279531 10.4845
f 54/209/56 57/210/57 58/211/57 56/212/56 

vt 15.5561 -28.0334
v 1.21 0.304376 -0.392224
vt 15.4419 -27.8814
vn 0.659968 0.751294 -0
vt 3.63087 -27.8814
vt 3.5167 -28.0334
f 53/213/53 59/214/58 57/215/58 54/216/53 

vt -0.279531 -3.84477
v 0.01 0.304376 -0.392224
vt -0.393701 -3.69281
vn 0 0.751294 -0.659968
vt -47.6378 -3.69281
vt -47.752 -3.84477
f 55/217/54 60/218/59 59/219/59 53/220/54 

vt -3.5167 8.05242
vt -3.63087 8.20438
vn -0.659968 0.751294 -0
vt -15.4419 8.20438
vt -15.5561 8.05242
f 56/221/55 58/222/60 60/223/60 55/224/55 

f 57/33/8 59/34/8 60/31/8 58/32/8 

