# Alias OBJ Model File
# Exported from SketchUp, (c) 2000-2012 Trimble Navigation Limited
# File units = meters

mtllib plintlock.mtl

g Mesh1 Model

usemtl Material3
v 1.21 0.172188 -0.0461121
vt 47.6378 1.81544
vn 0 1 -0
v 1.21 0.172188 -0.346112
vt 47.6378 13.6265
v 0.01 0.172188 -0.346112
vt 0.393701 13.6265
v 0.01 0.172188 -0.0461121
vt 0.393701 1.81544
f 1/1/1 2/2/1 3/3/1 4/4/1 

v 1.2129 0.169641 -0.349012
vt 13.7406 -31.468
vn 0.715996 0.698104 -0
vt 13.6265 -31.316
vn 0.659968 0.751294 -0
vt 1.81544 -31.316
v 1.2129 0.169641 -0.0432122
vt 1.70127 -31.468
f 5/5/2 2/6/3 1/7/3 6/8/2 

v 0.00710009 0.169641 -0.349012
vt -0.279531 -5.91548
vn 0 0.698104 -0.715996
vt -0.393701 -5.76352
vn 0 0.751294 -0.659968
vt -47.6378 -5.76352
vt -47.752 -5.91548
f 7/9/4 3/10/5 2/11/5 5/12/4 

v 0.00710009 0.169641 -0.0432122
vt -1.70127 4.61778
vn -0.715996 0.698104 -0
vt -1.81544 4.76974
vn -0.659968 0.751294 -0
vt -13.6265 4.76974
vt -13.7406 4.61778
f 8/13/6 4/14/7 3/15/7 7/16/6 

vt 47.752 5.68592
vn 0 0.698104 0.715996
vt 47.6378 5.83788
vn 0 0.751294 0.659968
vt 0.393701 5.83788
vt 0.279531 5.68592
f 6/17/8 1/18/9 4/19/9 8/20/8 

v 1.21537 0.166677 -0.040739
vt 47.8493 6.06575
vn 0 0.579567 0.814925
vt 47.752 6.21772
vt 0.279531 6.21772
v 0.00462688 0.166677 -0.040739
vt 0.182161 6.06575
f 9/21/10 6/22/8 8/23/8 10/24/10 

v 1.21537 0.166677 -0.351485
vt 13.838 -25.6213
vn 0.814925 0.579567 -0
vt 13.7406 -25.4693
vt 1.70127 -25.4693
vt 1.6039 -25.6213
f 11/25/11 5/26/2 6/27/2 9/28/11 

v 0.00462688 0.166677 -0.351485
vt -0.182161 -3.8286
vn 0 0.579567 -0.814925
vt -0.279531 -3.67664
vt -47.752 -3.67664
vt -47.8493 -3.8286
f 12/29/12 7/30/4 5/31/4 11/32/12 

vt -1.6039 5.15478
vn -0.814925 0.579567 -0
vt -1.70127 5.30674
vt -13.7406 5.30674
vt -13.838 5.15478
f 10/33/13 8/34/6 7/35/6 12/36/13 

v 0.00263932 0.163368 -0.0387514
vt -1.52565 5.56709
vn -0.894427 0.447214 -0
vt -1.6039 5.71905
vt -13.838 5.71905
v 0.00263932 0.163368 -0.353473
vt -13.9163 5.56709
f 13/37/14 10/38/13 12/39/13 14/40/14 

v 1.21736 0.163368 -0.0387514
vt 47.9276 6.29918
vn 0 0.447214 0.894427
vt 47.8493 6.45114
vt 0.182161 6.45114
vt 0.10391 6.29918
f 15/41/15 9/42/10 10/43/10 13/44/15 

v 1.21736 0.163368 -0.353473
vt 13.9163 -19.1656
vn 0.894427 0.447214 -0
vt 13.838 -19.0137
vt 1.6039 -19.0137
vt 1.52565 -19.1656
f 16/45/16 11/46/11 9/47/11 15/48/16 

vt -0.10391 -1.65227
vn 0 0.447214 -0.894427
vt -0.182161 -1.50031
vt -47.8493 -1.50031
vt -47.9276 -1.65227
f 14/49/17 12/50/12 11/51/12 16/52/17 

v 0.00118479 0.159793 -0.354927
vt -0.0466455 0.561641
vn 0 0.3042 -0.952608
vt -0.10391 0.713605
vt -47.9276 0.713605
v 1.21882 0.159793 -0.354927
vt -47.9849 0.561641
f 17/53/18 14/54/17 16/55/17 18/56/18 

v 0.00118479 0.159793 -0.0372969
vt -1.46838 5.84488
vn -0.952608 0.3042 -0
vt -1.52565 5.99684
vt -13.9163 5.99684
vt -13.9735 5.84488
f 19/57/19 13/58/14 14/59/14 17/60/19 

v 1.21882 0.159793 -0.0372969
vt 47.9849 6.38063
vn 0 0.3042 0.952608
vt 47.9276 6.53259
vt 0.10391 6.53259
vt 0.0466455 6.38063
f 20/61/20 15/62/15 13/63/15 19/64/20 

vt 13.9735 -12.2549
vn 0.952608 0.3042 -0
vt 13.9163 -12.1029
vt 1.52565 -12.1029
vt 1.46838 -12.2549
f 18/65/21 16/66/16 15/67/16 20/68/21 

v 1.2197 0.156036 -0.355814
vt 14.0084 -5.05385
vn 0.988081 0.153935 -0
vt 13.9735 -4.90189
vt 1.46838 -4.90189
v 1.2197 0.156036 -0.0364101
vt 1.43347 -5.05385
f 21/69/22 18/70/21 20/71/21 22/72/22 

v 0.000297974 0.156036 -0.355814
vt -0.0117313 2.76035
vn 0 0.153935 -0.988081
vt -0.0466455 2.91232
vt -47.9849 2.91232
vt -48.0198 2.76035
f 23/73/23 17/74/18 18/75/18 21/76/23 

v 0.000297974 0.156036 -0.0364101
vt -1.43347 5.98152
vn -0.988081 0.153935 -0
vt -1.46838 6.13349
vt -13.9735 6.13349
vt -14.0084 5.98152
f 24/77/24 19/78/19 17/79/19 23/80/24 

vt 48.0198 6.30817
vn 0 0.153935 0.988081
vt 47.9849 6.46014
vt 0.0466455 6.46014
vt 0.0117313 6.30817
f 22/81/25 20/82/20 19/83/20 24/84/25 

v 1.22 0.152188 -0.0361121
vt 48.0315 6.08353
vn 0 -6.95966e-18 1
vt 48.0198 6.23549
vt 0.0117313 6.23549
v 0 0.152188 -0.0361121
vt 0 6.08353
f 25/85/26 22/86/25 24/87/25 26/88/26 

v 1.22 0.152188 -0.356112
vt 14.0202 2.26585
vn 1 -6.95966e-18 -0
vt 14.0084 2.41782
vt 1.43347 2.41782
vt 1.42174 2.26585
f 27/89/27 21/90/22 22/91/22 25/92/27 

v 1.40998e-18 0.152188 -0.356112
vt -5.55112e-17 4.89145
vn 0 -6.95966e-18 -1
vt -0.0117313 5.04341
vt -48.0198 5.04341
vt -48.0315 4.89145
f 28/93/28 23/94/23 21/95/23 27/96/28 

vt -1.42174 5.97377
vn -1 -6.95966e-18 -0
vt -1.43347 6.12574
vt -14.0084 6.12574
vt -14.0202 5.97377
f 26/97/29 24/98/24 23/99/24 28/100/29 

v 0.000297974 0.14834 -0.0364101
vt -1.43347 5.82181
vn -0.988081 -0.153935 -0
v 0.000297974 0.14834 -0.355814
vt -14.0084 5.82181
f 29/101/30 26/97/29 28/100/29 30/102/30 

v 1.2197 0.14834 -0.0364101
vt 48.0198 5.71206
vn 0 -0.153935 0.988081
vt 48.0315 5.86402
vt 0 5.86402
vt 0.0117313 5.71206
f 31/103/31 25/104/26 26/105/26 29/106/31 

v 1.2197 0.14834 -0.355814
vt 14.0084 9.52973
vn 0.988081 -0.153935 -0
vt 14.0202 9.6817
vt 1.42174 9.6817
vt 1.43347 9.52973
f 32/107/32 27/108/27 25/109/27 31/110/32 

vt -0.0117313 6.90413
vn 0 -0.153935 -0.988081
vt -5.55112e-17 7.0561
vt -48.0315 7.0561
vt -48.0198 6.90413
f 30/111/33 28/112/28 27/113/28 32/114/33 

v 0.00118479 0.144583 -0.354927
vt -0.0466455 8.75043
vn 0 -0.3042 -0.952608
vt -0.0117313 8.90239
vt -48.0198 8.90239
v 1.21882 0.144583 -0.354927
vt -47.9849 8.75043
f 33/115/34 30/116/33 32/117/33 34/118/34 

v 0.00118479 0.144583 -0.0372969
vt -1.46838 5.52925
vn -0.952608 -0.3042 -0
vt -1.43347 5.68122
vt -14.0084 5.68122
vt -13.9735 5.52925
f 35/119/35 29/120/30 30/121/30 33/122/35 

v 1.21882 0.144583 -0.0372969
vt 47.9849 5.20261
vn 0 -0.3042 0.952608
vt 48.0198 5.35457
vt 0.0117313 5.35457
vt 0.0466455 5.20261
f 36/123/36 31/124/31 29/125/31 35/126/36 

vt 13.9735 16.5646
vn 0.952608 -0.3042 -0
vt 14.0084 16.7166
vt 1.43347 16.7166
vt 1.46838 16.5646
f 34/127/37 32/128/32 31/129/32 36/130/37 

v 1.21736 0.141008 -0.353473
vt 13.9163 23.2029
vn 0.894427 -0.447214 -0
vt 13.9735 23.3548
vt 1.46838 23.3548
v 1.21736 0.141008 -0.0387514
vt 1.52565 23.2029
f 37/131/38 34/132/37 36/133/37 38/134/38 

v 0.00263932 0.141008 -0.353473
vt -0.10391 10.3863
vn 0 -0.447214 -0.894427
vt -0.0466455 10.5383
vt -47.9849 10.5383
vt -47.9276 10.3863
f 39/135/39 33/136/34 34/137/34 37/138/39 

v 0.00263932 0.141008 -0.0387514
vt -1.52565 5.10308
vn -0.894427 -0.447214 -0
vt -1.46838 5.25505
vt -13.9735 5.25505
vt -13.9163 5.10308
f 40/139/40 35/140/35 33/141/35 39/142/40 

vt 47.9276 4.56733
vn 0 -0.447214 0.894427
vt 47.9849 4.71929
vt 0.0466455 4.71929
vt 0.10391 4.56733
f 38/143/41 36/144/36 35/145/36 40/146/41 

v 1.21537 0.137699 -0.040739
vt 47.8493 3.82136
vn 0 -0.579567 0.814925
vt 47.9276 3.97333
vt 0.10391 3.97333
v 0.00462688 0.137699 -0.040739
vt 0.182161 3.82136
f 41/147/42 38/148/41 40/149/41 42/150/42 

v 1.21537 0.137699 -0.351485
vt 13.838 29.2862
vn 0.814925 -0.579567 -0
vt 13.9163 29.4381
vt 1.52565 29.4381
vt 1.6039 29.2862
f 43/151/43 37/152/38 38/153/38 41/154/43 

v 0.00462688 0.137699 -0.351485
vt -0.182161 11.7728
vn 0 -0.579567 -0.814925
vt -0.10391 11.9248
vt -47.9276 11.9248
vt -47.8493 11.7728
f 44/155/44 39/156/39 37/157/39 43/158/44 

vt -1.6039 4.55345
vn -0.814925 -0.579567 -0
vt -1.52565 4.70542
vt -13.9163 4.70542
vt -13.838 4.55345
f 42/159/45 40/160/40 39/161/40 44/162/45 

v 0.00710009 0.134735 -0.0432122
vt -1.70127 3.89346
vn -0.715996 -0.698104 -0
vt -1.6039 4.04543
vt -13.838 4.04543
v 0.00710009 0.134735 -0.349012
vt -13.7406 3.89346
f 45/163/46 42/164/45 44/165/45 46/166/46 

v 1.2129 0.134735 -0.0432122
vt 47.752 2.98249
vn 0 -0.698104 0.715996
vt 47.8493 3.13445
vt 0.182161 3.13445
vt 0.279531 2.98249
f 47/167/47 41/168/42 42/169/42 45/170/47 

v 1.2129 0.134735 -0.349012
vt 13.7406 34.6695
vn 0.715996 -0.698104 -0
vt 13.838 34.8215
vt 1.6039 34.8215
vt 1.70127 34.6695
f 48/171/48 43/172/43 41/173/43 47/174/48 

vt -0.279531 12.8768
vn 0 -0.698104 -0.715996
vt -0.182161 13.0288
vt -47.8493 13.0288
vt -47.752 12.8768
f 46/175/49 44/176/44 43/177/44 48/178/49 

v 0.01 0.132188 -0.346112
vt -0.393701 13.6721
vn 0 -0.751294 -0.659968
vt -0.279531 13.8241
vt -47.752 13.8241
v 1.21 0.132188 -0.346112
vt -47.6378 13.6721
f 49/179/50 46/180/49 48/181/49 50/182/50 

v 0.01 0.132188 -0.0461121
vt -1.81544 3.13885
vn -0.659968 -0.751294 -0
vt -1.70127 3.29082
vt -13.7406 3.29082
vt -13.6265 3.13885
f 51/183/51 45/184/46 46/185/46 49/186/51 

v 1.21 0.132188 -0.0461121
vt 47.6378 2.07071
vn 0 -0.751294 0.659968
vt 47.752 2.22268
vt 0.279531 2.22268
vt 0.393701 2.07071
f 52/187/52 47/188/47 45/189/47 51/190/52 

vt 13.6265 39.2246
vn 0.659968 -0.751294 -0
vt 13.7406 39.3766
vt 1.70127 39.3766
vt 1.81544 39.2246
f 50/191/53 48/192/48 47/193/48 52/194/53 

usemtl FrontColor
f 49/3/1 51/4/1 52/1/1 50/2/1 

usemtl Material2
vt -13.6265 5.20425
vn -1 0 -0
v 0.01 9.02389e-17 -0.392224
vt -15.4419 3.55271e-15
v 0.01 9.02389e-17 -0
vt 0 3.55271e-15
vt -1.81544 5.20425
f 49/195/54 53/196/54 54/197/54 51/198/54 

vt -47.6378 0.42568
vn -3.45666e-17 0.329372 -0.9442
v 1.21 9.02389e-17 -0.392224
vt -47.6378 -5.08613
vt -0.393701 -5.08613
vt -0.393701 0.42568
f 50/199/55 55/200/55 53/201/55 49/202/55 

vt 1.81544 5.20425
vn 1 0 -0
v 1.21 0 -0
vt 0 0
vt 15.4419 3.55271e-15
vt 13.6265 5.20425
f 52/203/56 56/204/56 55/205/56 50/206/56 

vt 0.393701 5.51181
vn 1.25824e-17 0.329372 0.9442
vt 0.393701 3.35274e-15
vt 47.6378 -2.09092e-16
vt 47.6378 5.51181
f 51/207/57 54/208/57 56/209/57 52/210/57 

